<?xml version="1.0" encoding="UTF-8"?>
<svg version="1.1" xmlns="http://www.w3.org/2000/svg" width="612" height="136">
<path d="M0 0 C0 3.63 0 7.26 0 11 C4.29 11 8.58 11 13 11 C13 14.3 13 17.6 13 21 C8.71 21 4.42 21 0 21 C0.495 33.375 0.495 33.375 1 46 C5.17664661 46 8.09145257 45.91965822 12 45 C13.19287411 48.87684087 14 51.91621923 14 56 C6.52023336 59.46285492 1.05755941 59.09946944 -6.875 57.375 C-10.18115367 55.2357241 -11.74258084 52.64482131 -13 49 C-13.48542199 44.17671747 -13.37708131 39.40380916 -13.25 34.5625 C-13.23195313 33.25861328 -13.21390625 31.95472656 -13.1953125 30.61132812 C-13.14835957 27.40679091 -13.08269464 24.2037811 -13 21 C-15.31 21 -17.62 21 -20 21 C-20.33 19.35 -20.66 17.7 -21 16 C-22.31799019 18.41381346 -23.62950918 20.83077596 -24.9375 23.25 C-25.31068359 23.93191406 -25.68386719 24.61382812 -26.06835938 25.31640625 C-26.42607422 25.98027344 -26.78378906 26.64414063 -27.15234375 27.328125 C-27.6472229 28.23933105 -27.6472229 28.23933105 -28.15209961 29.16894531 C-29.05334473 31.11519881 -29.62594272 32.88823705 -30 35 C-29.2484276 37.0500043 -29.2484276 37.0500043 -27.9375 39.0625 C-27.24914062 40.22652344 -27.24914062 40.22652344 -26.546875 41.4140625 C-26.03640625 42.26742187 -25.5259375 43.12078125 -25 44 C-23.88569029 45.97347374 -22.7814898 47.95268993 -21.6875 49.9375 C-21.17574219 50.85402344 -20.66398437 51.77054688 -20.13671875 52.71484375 C-19 55 -19 55 -19 57 C-21.26921536 57.13489391 -23.5407067 57.23193995 -25.8125 57.3125 C-27.70935547 57.39951172 -27.70935547 57.39951172 -29.64453125 57.48828125 C-33 57 -33 57 -34.78125 54.78125 C-35.1834375 53.8634375 -35.585625 52.945625 -36 52 C-36.45761719 51.18917969 -36.91523438 50.37835938 -37.38671875 49.54296875 C-39.19335938 46.27148438 -39.19335938 46.27148438 -41 43 C-42.32 45.97 -43.64 48.94 -45 52 C-45.66 52 -46.32 52 -47 52 C-47.144375 52.639375 -47.28875 53.27875 -47.4375 53.9375 C-48 56 -48 56 -49 57 C-51.18639453 57.07258946 -53.37500389 57.08373783 -55.5625 57.0625 C-57.35880859 57.04896484 -57.35880859 57.04896484 -59.19140625 57.03515625 C-60.11824219 57.02355469 -61.04507812 57.01195312 -62 57 C-60.72374648 51.78863146 -58.80846984 47.58277389 -56 43 C-53.13995026 38.17456118 -53.13995026 38.17456118 -51 33 C-53.43914337 27.43875312 -56.54631005 22.39831012 -59.828125 17.296875 C-61 15 -61 15 -61 11 C-56.5765466 10.53369159 -52.40580704 10.30041125 -48 11 C-44.44795211 13.93740781 -43.36135301 17.6657735 -42.1875 22 C-42.125625 22.66 -42.06375 23.32 -42 24 C-37.29119882 19.81439895 -36.06096354 17.12192707 -33 11 C-26.4 11 -19.8 11 -13 11 C-13 8.03 -13 5.06 -13 2 C-8.46298506 0.54815522 -4.81938524 -0.23509196 0 0 Z " fill="#2E2E2E" transform="translate(322,49)"/>
<path d="M0 0 C6.625 0.75 6.625 0.75 10 3 C9.01 5.97 8.02 8.94 7 12 C6.01 12 5.02 12 4 12 C4.474375 12.66 4.94875 13.32 5.4375 14 C7.33691124 17.64686958 8.26326808 20.9080619 8 25 C6.55136583 29.33815581 4.48061505 32.99281874 1 36 C-4.56017987 38.04251506 -10.11838747 38.55029924 -16 39 C-16 39.99 -16 40.98 -16 42 C-14.28103516 42.05607422 -14.28103516 42.05607422 -12.52734375 42.11328125 C-10.99736554 42.17898584 -9.46741903 42.24543159 -7.9375 42.3125 C-6.80924805 42.34633789 -6.80924805 42.34633789 -5.65820312 42.38085938 C0.74024113 42.6855472 5.85774422 43.74788495 10.4375 48.5625 C12.53331789 53.17329936 12.80806371 57.01424691 12 62 C9.30120482 67.4939759 9.30120482 67.4939759 5.75 68.875 C5.1725 68.91625 4.595 68.9575 4 69 C4 69.66 4 70.32 4 71 C-6.59562276 74.53187425 -18.73857407 74.39775397 -29 70 C-29 69.34 -29 68.68 -29 68 C-29.99 68 -30.98 68 -32 68 C-34.10718184 64.54422178 -35.00804219 62.4664468 -34.9375 58.375 C-33.91501484 54.69405342 -33.002389 53.29594453 -30 51 C-28.515 50.505 -28.515 50.505 -27 50 C-27.66 49.34 -28.32 48.68 -29 48 C-29.78749723 43.33911524 -29.60035861 39.91929912 -27 35.9375 C-26.34 35.298125 -25.68 34.65875 -25 34 C-25.99 33.34 -26.98 32.68 -28 32 C-30.43004127 25.07438237 -30.32008743 18.9602623 -28 12 C-22.38148485 6.84969444 -17.67938758 5.68859897 -10.1875 5.875 C-9.14819336 5.88853516 -9.14819336 5.88853516 -8.08789062 5.90234375 C-6.39177605 5.92573843 -4.69584129 5.96160359 -3 6 C-2.01 4.02 -1.02 2.04 0 0 Z M-17 18 C-17.28005058 19.91180549 -17.28005058 19.91180549 -17.1875 22 C-17.18105469 22.70125 -17.17460938 23.4025 -17.16796875 24.125 C-17.10706133 26.09056373 -17.10706133 26.09056373 -16 28 C-12.23812651 29.19695975 -10.61832248 29.31573914 -7.0625 27.5 C-4.60614973 25.07397462 -4.60614973 25.07397462 -5.0625 21.375 C-5.71336088 17.95860095 -5.71336088 17.95860095 -8 16 C-13.02999574 15.41355715 -13.02999574 15.41355715 -17 18 Z M-22 57 C-20.63016497 60.16115776 -20.0109362 60.9927092 -17 63 C-11.73781303 63.70053882 -7.36666468 63.85751509 -2.8125 61 C-2.214375 60.34 -1.61625 59.68 -1 59 C-1.56362302 56.95163118 -1.56362302 56.95163118 -3 55 C-8.8358568 53.24924296 -17.83952218 51.85022289 -22 57 Z " fill="#2A2A2A" transform="translate(581,53)"/>
<path d="M0 0 C3.4375 2 3.4375 2 6 4 C7.32 4 8.64 4 10 4 C10.66 4 11.32 4 12 4 C12 3.34 12 2.68 12 2 C17.37145363 -0.42832443 22.18007372 -0.68369178 28 0 C33.08109275 2.35907878 34.94336484 4.87518515 37 10 C37.38203476 12.90277834 37.35112737 15.7560963 37.29296875 18.6796875 C37.28872391 19.49245148 37.28447906 20.30521545 37.28010559 21.14260864 C37.26340804 23.72041959 37.22577362 26.2974282 37.1875 28.875 C37.17244158 30.63019699 37.1587552 32.38540631 37.14648438 34.140625 C37.11353392 38.42738913 37.06181453 42.71355886 37 47 C32.71 47 28.42 47 24 47 C23.970271 45.56950317 23.970271 45.56950317 23.93994141 44.11010742 C23.86384986 40.57077701 23.77513839 37.03185583 23.68261719 33.49291992 C23.64434202 31.96142661 23.60948651 30.42984385 23.578125 28.89819336 C23.53244193 26.6961267 23.47445463 24.49467504 23.4140625 22.29296875 C23.40251129 21.60849167 23.39096008 20.92401459 23.37905884 20.21879578 C23.26726256 16.61539163 23.05605447 15.0840817 21 12 C19.02252878 11.63702064 19.02252878 11.63702064 16.875 11.8125 C15.59625 11.874375 14.3175 11.93625 13 12 C10.61668239 16.60774737 9.84804258 20.22608414 9.68359375 25.41796875 C9.62075195 27.29838867 9.62075195 27.29838867 9.55664062 29.21679688 C9.51732422 30.52712891 9.47800781 31.83746094 9.4375 33.1875 C9.39429008 34.52279978 9.350675 35.85808652 9.30664062 37.19335938 C9.20043498 40.46213297 9.09839003 43.73098333 9 47 C5.04 47 1.08 47 -3 47 C-3.02505615 46.14768799 -3.0501123 45.29537598 -3.07592773 44.41723633 C-3.17135569 41.23955034 -3.27057124 38.06201106 -3.37231445 34.88452148 C-3.4154884 33.51217224 -3.45717501 32.13977533 -3.49731445 30.76733398 C-3.55544392 28.78877932 -3.6194571 26.8104003 -3.68359375 24.83203125 C-3.72025146 23.64327393 -3.75690918 22.4545166 -3.79467773 21.22973633 C-3.97679198 18.36506401 -4.2175287 15.76090215 -5 13 C-7.87470493 11.56264754 -9.81894588 11.61827351 -13 12 C-15.81949102 14.72216816 -16.90606571 16.42845436 -17.54589844 20.3215332 C-17.5668457 21.55218506 -17.58779297 22.78283691 -17.609375 24.05078125 C-17.62591125 24.70958786 -17.64244751 25.36839447 -17.65948486 26.04716492 C-17.70777556 28.13570651 -17.72929082 30.22352122 -17.75 32.3125 C-17.77817596 33.73506224 -17.80810568 35.1575909 -17.83984375 36.58007812 C-17.9168106 40.0537134 -17.95749347 43.52509147 -18 47 C-22.29 47 -26.58 47 -31 47 C-31 31.82 -31 16.64 -31 1 C-26.71 1 -22.42 1 -18 1 C-17.67 1.99 -17.34 2.98 -17 4 C-16.34 4 -15.68 4 -15 4 C-15 3.34 -15 2.68 -15 2 C-10.22912396 -0.79980988 -5.38784447 -0.67250308 0 0 Z " fill="#232323" transform="translate(509,59)"/>
<path d="M0 0 C4.62 0 9.24 0 14 0 C14 11.88 14 23.76 14 36 C-0.85 36 -15.7 36 -31 36 C-31 52.17 -31 68.34 -31 85 C-35.29 85 -39.58 85 -44 85 C-45 84 -45 84 -45.12025452 81.52598572 C-45.11803391 80.42678299 -45.11581329 79.32758026 -45.11352539 78.19506836 C-45.11344986 76.95385727 -45.11337433 75.71264618 -45.11329651 74.43382263 C-45.10818911 73.0691626 -45.1029731 71.70450298 -45.09765625 70.33984375 C-45.095792 68.95121817 -45.09436813 67.56259193 -45.09336853 66.17396545 C-45.08954387 62.51278885 -45.07971403 58.8516517 -45.06866455 55.19049072 C-45.05844932 51.45707747 -45.05381597 47.72365767 -45.04882812 43.99023438 C-45.0386219 36.66012137 -45.01905026 29.3301168 -45 22 C-30.15 22 -15.3 22 0 22 C0 14.74 0 7.48 0 0 Z " fill="#317051" transform="translate(107,32)"/>
<path d="M0 0 C0.99 0.33 1.98 0.66 3 1 C4.16796875 3.50390625 4.16796875 3.50390625 5.1875 6.5625 C5.53167969 7.57441406 5.87585938 8.58632812 6.23046875 9.62890625 C6.48441406 10.41136719 6.73835938 11.19382812 7 12 C8.32 12 9.64 12 11 12 C11 13.32 11 14.64 11 16 C12.32 16.33 13.64 16.66 15 17 C15.6875 18.75 15.6875 18.75 16 21 C15.01 22.32 14.02 23.64 13 25 C37.255 25.495 37.255 25.495 62 26 C62 30.62 62 35.24 62 40 C46.49 40 30.98 40 15 40 C15.495 41.98 15.495 41.98 16 44 C16.08778022 45.35595597 16.13057475 46.71542629 16.1328125 48.07421875 C16.13474609 49.19860352 16.13474609 49.19860352 16.13671875 50.34570312 C16.13285156 51.11849609 16.12898438 51.89128906 16.125 52.6875 C16.13080078 53.8640918 16.13080078 53.8640918 16.13671875 55.06445312 C16.12667749 60.87332251 16.12667749 60.87332251 15 62 C10.71 62 6.42 62 2 62 C1.505 49.13 1.505 49.13 1 36 C-3.82464719 37.38013314 -3.82464719 37.38013314 -5.14453125 39.7265625 C-5.36496094 40.35304687 -5.58539062 40.97953125 -5.8125 41.625 C-6.204375 42.73875 -6.59625 43.8525 -7 45 C-8.32 44.34 -9.64 43.68 -11 43 C-10.01 39.7 -9.02 36.4 -8 33 C-8.86625 33.226875 -9.7325 33.45375 -10.625 33.6875 C-14.68338409 34.0632763 -16.55166676 33.05257931 -20 31 C-19.67 30.38125 -19.34 29.7625 -19 29.125 C-17.85806765 27.08981656 -17.85806765 27.08981656 -18 25 C-19.98 24.34 -21.96 23.68 -24 23 C-23.505 21.515 -23.505 21.515 -23 20 C-20.23547967 18.61773984 -17.9538637 18.90474613 -14.875 18.9375 C-13.77929688 18.94652344 -12.68359375 18.95554687 -11.5546875 18.96484375 C-10.71164063 18.97644531 -9.86859375 18.98804687 -9 19 C-9 18.34 -9 17.68 -9 17 C-9.66 17 -10.32 17 -11 17 C-11 16.34 -11 15.68 -11 15 C-5.25 14.875 -5.25 14.875 -3 16 C-3.061875 14.845 -3.12375 13.69 -3.1875 12.5 C-3.21274356 7.78786879 -1.84474512 4.30440528 0 0 Z M-1 19 C0 23 0 23 0 23 Z M9 24 C8.67 24.66 8.34 25.32 8 26 C8.99 26 9.98 26 11 26 C11 25.34 11 24.68 11 24 C10.34 24 9.68 24 9 24 Z M-10 28 C-9.01 29.485 -9.01 29.485 -8 31 C-6.68 30.67 -5.36 30.34 -4 30 C-4 28.68 -4 27.36 -4 26 C-6.08428209 26 -8.09817964 27.21976601 -10 28 Z M1 31 C1 34 1 34 1 34 Z " fill="#07542F" transform="translate(36,6)"/>
<path d="M0 0 C3.9001438 2.72770794 6.15977638 6.20024094 7.72265625 10.6484375 C8.01719734 14.87019306 8.17627695 19.10931455 7.91015625 23.3359375 C6.0505055 25.19558825 2.96126506 24.57681299 0.46875 24.65234375 C-1.48901367 24.71518555 -1.48901367 24.71518555 -3.48632812 24.77929688 C-4.87499705 24.81911358 -6.26366897 24.85882575 -7.65234375 24.8984375 C-9.04493558 24.94161739 -10.43751403 24.9852315 -11.83007812 25.02929688 C-15.24989176 25.13579626 -18.66978138 25.23780673 -22.08984375 25.3359375 C-19.97657849 30.04436374 -19.97657849 30.04436374 -16.08984375 33.3359375 C-12.03365064 33.80175122 -12.03365064 33.80175122 -8.08984375 33.3359375 C-5.36028525 30.85686781 -5.36028525 30.85686781 -3.08984375 28.3359375 C-1.15234375 28.3359375 -1.15234375 28.3359375 0.91015625 29.3359375 C1.98265625 29.8515625 3.05515625 30.3671875 4.16015625 30.8984375 C5.06765625 31.3728125 5.97515625 31.8471875 6.91015625 32.3359375 C6.68742019 36.19669581 6.53899317 38.60567527 3.97265625 41.5859375 C-3.90530533 46.08762983 -11.2009528 47.12463906 -20.08984375 45.3359375 C-25.4767163 43.76349824 -30.331816 41.26023856 -33.28515625 36.34765625 C-36.95492467 28.50769645 -37.76520752 19.70423076 -35.171875 11.39453125 C-32.24026549 5.02847953 -28.77177932 1.17690528 -22.46484375 -1.9765625 C-14.7192079 -3.55437721 -7.15078362 -3.6597477 0 0 Z M-20.71484375 11.2109375 C-22.22408995 14.07202167 -22.22408995 14.07202167 -22.08984375 16.3359375 C-16.47984375 16.3359375 -10.86984375 16.3359375 -5.08984375 16.3359375 C-5.08984375 14.6859375 -5.08984375 13.0359375 -5.08984375 11.3359375 C-5.74984375 11.3359375 -6.40984375 11.3359375 -7.08984375 11.3359375 C-7.41984375 10.3459375 -7.74984375 9.3559375 -8.08984375 8.3359375 C-15.1789334 7.40520214 -15.1789334 7.40520214 -20.71484375 11.2109375 Z " fill="#2D2D2D" transform="translate(251.08984375,61.6640625)"/>
<path d="M0 0 C5.53367041 3.32020225 9.069252 7.33122122 11.5 13.3125 C11.94513478 16.44742348 11.96484695 19.52519827 11.9375 22.6875 C11.9674707 23.90566406 11.9674707 23.90566406 11.99804688 25.1484375 C11.99245755 32.12391667 10.12440348 37.45653151 5.375 42.625 C-2.49163929 47.24237524 -10.57333872 48.35830549 -19.4375 46.375 C-25.41296563 44.4745461 -29.08547235 40.45657951 -32.5 35.3125 C-33.81398202 31.05130989 -33.7214264 26.85926484 -33.75 22.4375 C-33.770625 21.64730469 -33.79125 20.85710937 -33.8125 20.04296875 C-33.85407956 13.79563928 -32.16338802 9.99951141 -28.875 4.6875 C-21.49878475 -2.68871525 -9.46757239 -4.38479251 0 0 Z M-19.5 13.3125 C-20.55336511 16.47259533 -20.70032888 18.8678136 -20.75 22.1875 C-20.77578125 23.21617188 -20.8015625 24.24484375 -20.828125 25.3046875 C-20.35146422 29.67407798 -18.5628387 32.2496613 -15.5 35.3125 C-10.82398837 35.77243557 -8.58681063 35.98308528 -4.5625 33.5 C-1.41487708 30.16161206 -1.34272681 27.35061388 -1.3125 22.9375 C-1.29832031 22.00164062 -1.28414063 21.06578125 -1.26953125 20.1015625 C-1.51700978 17.10665281 -2.16122583 14.99468077 -3.5 12.3125 C-6.21218502 10.12768429 -8.05233804 9.37778404 -11.5 8.875 C-15.24625013 9.42132814 -16.84603528 10.65853528 -19.5 13.3125 Z " fill="#272727" transform="translate(424.5,60.6875)"/>
<path d="M0 0 C0.85049423 0.00222061 1.70098846 0.00444122 2.57725525 0.00672913 C4.01863609 0.00684242 4.01863609 0.00684242 5.48913574 0.00695801 C7.05630592 0.01469994 7.05630592 0.01469994 8.65513611 0.02259827 C9.71913132 0.02401321 10.78312653 0.02542816 11.87936401 0.02688599 C15.29293069 0.03250388 18.70643286 0.04505941 22.11997986 0.05775452 C24.42792162 0.06276721 26.73586441 0.06733052 29.04380798 0.07142639 C34.71505697 0.08247913 40.38625746 0.09975574 46.05747986 0.12025452 C46.05747986 4.08025452 46.05747986 8.04025452 46.05747986 12.12025452 C40.44747986 12.12025452 34.83747986 12.12025452 29.05747986 12.12025452 C29.05747986 28.29025452 29.05747986 44.46025452 29.05747986 61.12025452 C24.43747986 61.12025452 19.81747986 61.12025452 15.05747986 61.12025452 C15.05747986 44.95025452 15.05747986 28.78025452 15.05747986 12.12025452 C9.44747986 12.12025452 3.83747986 12.12025452 -1.94252014 12.12025452 C-2.94252014 11.12025452 -2.94252014 11.12025452 -3.07533264 8.87025452 C-3.07275452 7.96275452 -3.07017639 7.05525452 -3.06752014 6.12025452 C-3.07009827 5.21275452 -3.07267639 4.30525452 -3.07533264 3.37025452 C-2.90818735 0.53861668 -2.83043645 0.17522226 0 0 Z " fill="#303030" transform="translate(166.94252014160156,44.87974548339844)"/>
<path d="M0 0 C0 3.63 0 7.26 0 11 C4.62 11 9.24 11 14 11 C14 14.3 14 17.6 14 21 C9.38 21 4.76 21 0 21 C0.0867681 24.60536404 0.1936268 28.20817495 0.3125 31.8125 C0.33505859 32.83666016 0.35761719 33.86082031 0.38085938 34.91601562 C0.4340332 36.39038086 0.4340332 36.39038086 0.48828125 37.89453125 C0.51446533 38.80050049 0.54064941 39.70646973 0.56762695 40.63989258 C1.07394905 43.40365072 1.76619178 44.34036525 4 46 C6.07060488 46.14787017 6.07060488 46.14787017 8.1875 45.6875 C9.445625 45.460625 10.70375 45.23375 12 45 C12.69965443 46.26418246 13.38434763 47.53665402 14.0625 48.8125 C14.44535156 49.52019531 14.82820313 50.22789063 15.22265625 50.95703125 C16 53 16 53 15 56 C7.39545293 59.54004777 1.51894268 59.79808819 -6.3984375 57.046875 C-8 56 -8 56 -8.7265625 53.890625 C-8.81679688 53.26671875 -8.90703125 52.6428125 -9 52 C-9.66 52 -10.32 52 -11 52 C-12.57410012 47.82237097 -13.24126552 44.40275519 -13.1953125 39.9453125 C-13.18886719 38.83671875 -13.18242187 37.728125 -13.17578125 36.5859375 C-13.15902344 35.44382813 -13.14226562 34.30171875 -13.125 33.125 C-13.11597656 31.9596875 -13.10695313 30.794375 -13.09765625 29.59375 C-13.07417432 26.72895423 -13.04133141 23.86458465 -13 21 C-14.98 21 -16.96 21 -19 21 C-19 17.7 -19 14.4 -19 11 C-17.02 11 -15.04 11 -13 11 C-13 8.36 -13 5.72 -13 3 C-8.06632653 0.99308198 -5.44479395 0 0 0 Z " fill="#262626" transform="translate(377,49)"/>
<path d="M0 0 C0 3.63 0 7.26 0 11 C4.29 11 8.58 11 13 11 C13 14.3 13 17.6 13 21 C8.71 21 4.42 21 0 21 C0.33 29.25 0.66 37.5 1 46 C5.17664661 46 8.09145257 45.91965822 12 45 C13.19287411 48.87684087 14 51.91621923 14 56 C6.52023336 59.46285492 1.05755941 59.09946944 -6.875 57.375 C-10.19468376 55.22696933 -11.75169628 52.66520108 -13 49 C-13.48730034 44.01607847 -13.37813137 39.06143644 -13.25 34.0625 C-13.22990673 32.69729179 -13.21166094 31.33205507 -13.1953125 29.96679688 C-13.14834433 26.64379866 -13.08266726 23.32227008 -13 20 C-14.98 20 -16.96 20 -19 20 C-19 17.36 -19 14.72 -19 12 C-17.02 12 -15.04 12 -13 12 C-13 8.7 -13 5.4 -13 2 C-8.46298506 0.54815522 -4.81938524 -0.23509196 0 0 Z " fill="#262626" transform="translate(322,49)"/>
<path d="M0 0 C0.99 0.33 1.98 0.66 3 1 C4.16796875 3.50390625 4.16796875 3.50390625 5.1875 6.5625 C5.53167969 7.57441406 5.87585938 8.58632812 6.23046875 9.62890625 C6.48441406 10.41136719 6.73835938 11.19382812 7 12 C8.32 12 9.64 12 11 12 C11 13.32 11 14.64 11 16 C12.32 16.33 13.64 16.66 15 17 C15.6875 18.75 15.6875 18.75 16 21 C15.01 22.32 14.02 23.64 13 25 C37.255 25.495 37.255 25.495 62 26 C62 30.62 62 35.24 62 40 C46.49 40 30.98 40 15 40 C15.495 41.98 15.495 41.98 16 44 C16.08778022 45.35595597 16.13057475 46.71542629 16.1328125 48.07421875 C16.13474609 49.19860352 16.13474609 49.19860352 16.13671875 50.34570312 C16.13285156 51.11849609 16.12898438 51.89128906 16.125 52.6875 C16.13080078 53.8640918 16.13080078 53.8640918 16.13671875 55.06445312 C16.12667749 60.87332251 16.12667749 60.87332251 15 62 C10.71 62 6.42 62 2 62 C1.505 49.13 1.505 49.13 1 36 C-3.82464719 37.38013314 -3.82464719 37.38013314 -5.14453125 39.7265625 C-5.36496094 40.35304687 -5.58539062 40.97953125 -5.8125 41.625 C-6.204375 42.73875 -6.59625 43.8525 -7 45 C-8.32 44.34 -9.64 43.68 -11 43 C-10.01 39.7 -9.02 36.4 -8 33 C-8.86625 33.226875 -9.7325 33.45375 -10.625 33.6875 C-14.68338409 34.0632763 -16.55166676 33.05257931 -20 31 C-19.67 30.38125 -19.34 29.7625 -19 29.125 C-17.85806765 27.08981656 -17.85806765 27.08981656 -18 25 C-19.98 24.34 -21.96 23.68 -24 23 C-23.505 21.515 -23.505 21.515 -23 20 C-20.23547967 18.61773984 -17.9538637 18.90474613 -14.875 18.9375 C-13.77929688 18.94652344 -12.68359375 18.95554687 -11.5546875 18.96484375 C-10.71164063 18.97644531 -9.86859375 18.98804687 -9 19 C-9 18.34 -9 17.68 -9 17 C-9.66 17 -10.32 17 -11 17 C-11 16.34 -11 15.68 -11 15 C-5.25 14.875 -5.25 14.875 -3 16 C-3.061875 14.845 -3.12375 13.69 -3.1875 12.5 C-3.21274356 7.78786879 -1.84474512 4.30440528 0 0 Z M-1 19 C0 23 0 23 0 23 Z M9 24 C8.67 24.66 8.34 25.32 8 26 C8.99 26 9.98 26 11 26 C11 25.34 11 24.68 11 24 C10.34 24 9.68 24 9 24 Z M-10 28 C-9.01 29.485 -9.01 29.485 -8 31 C-6.68 30.67 -5.36 30.34 -4 30 C-4 28.68 -4 27.36 -4 26 C-6.08428209 26 -8.09817964 27.21976601 -10 28 Z M3 27 C3 38.22 3 49.44 3 61 C6.63 61 10.26 61 14 61 C14 53.41 14 45.82 14 38 C29.51 38 45.02 38 61 38 C61 34.37 61 30.74 61 27 C41.86 27 22.72 27 3 27 Z M1 31 C1 34 1 34 1 34 Z " fill="#EAF4F3" transform="translate(36,6)"/>
<path d="M0 0 C4.62 0 9.24 0 14 0 C14 20.13 14 40.26 14 61 C9.38 61 4.76 61 0 61 C0 40.87 0 20.74 0 0 Z " fill="#2F2F2F" transform="translate(457,45)"/>
<path d="M0 0 C4.62 0 9.24 0 14 0 C14 13.2 14 26.4 14 40 C9.38 40 4.76 40 0 40 C0 26.8 0 13.6 0 0 Z " fill="#2F7051" transform="translate(86,77)"/>
<path d="M0 0 C0.99 0.33 1.98 0.66 3 1 C5.60974417 8.8292325 4.90265747 17.14477995 1.3125 24.5 C-4.78994611 35.25806813 -12.28076888 40.09863016 -24 44 C-26.83829437 44.35532846 -29.13651189 44.2753354 -32 44 C-32.33 43.34 -32.66 42.68 -33 42 C-32.20335938 41.731875 -31.40671875 41.46375 -30.5859375 41.1875 C-24.39613466 38.89832717 -19.62576294 36.90789401 -15.98046875 31.2421875 C-14.22925334 27.23741601 -14.02103322 23.32583296 -14 19 C-13.98582031 18.27683594 -13.97164062 17.55367187 -13.95703125 16.80859375 C-13.94084088 15.20574694 -13.96516196 13.60254995 -14 12 C-12.948125 11.773125 -11.89625 11.54625 -10.8125 11.3125 C-6.80198218 10.15967909 -4.65457143 8.26133061 -2 5 C-0.680982 2.33466965 -0.680982 2.33466965 0 0 Z " fill="#227783" transform="translate(145,69)"/>
<path d="M0 0 C0.99 0.33 1.98 0.66 3 1 C3 2.32 3 3.64 3 5 C4.32 5.33 5.64 5.66 7 6 C7.6875 7.75 7.6875 7.75 8 10 C7.01 11.32 6.02 12.64 5 14 C29.255 14.495 29.255 14.495 54 15 C54 19.62 54 24.24 54 29 C38.49 29 22.98 29 7 29 C7.33 30.32 7.66 31.64 8 33 C8.08778022 34.35595597 8.13057475 35.71542629 8.1328125 37.07421875 C8.13474609 38.19860352 8.13474609 38.19860352 8.13671875 39.34570312 C8.13285156 40.11849609 8.12898438 40.89128906 8.125 41.6875 C8.13080078 42.8640918 8.13080078 42.8640918 8.13671875 44.06445312 C8.12667749 49.87332251 8.12667749 49.87332251 7 51 C2.71 51 -1.58 51 -6 51 C-6.33 42.42 -6.66 33.84 -7 25 C-8.65 25.33 -10.3 25.66 -12 26 C-11.54625 25.278125 -11.0925 24.55625 -10.625 23.8125 C-8.95849299 21.11464126 -8.95849299 21.11464126 -8.0625 18.4375 C-6.82167025 15.59089057 -5.36251434 13.99337147 -3 12 C-2.34 12 -1.68 12 -1 12 C-0.67 9.36 -0.34 6.72 0 4 C-0.66 3.67 -1.32 3.34 -2 3 C-1.34 2.01 -0.68 1.02 0 0 Z M1 13 C0.67 13.66 0.34 14.32 0 15 C0.99 15 1.98 15 3 15 C3 14.34 3 13.68 3 13 C2.34 13 1.68 13 1 13 Z M-5 16 C-5 27.22 -5 38.44 -5 50 C-1.37 50 2.26 50 6 50 C6 42.41 6 34.82 6 27 C21.51 27 37.02 27 53 27 C53 23.37 53 19.74 53 16 C33.86 16 14.72 16 -5 16 Z M-7 20 C-7 23 -7 23 -7 23 Z " fill="#B0C2BA" transform="translate(44,17)"/>
<path d="M0 0 C2.75329021 1.79562405 4.52627461 3.05254922 6 6 C6.55881444 10.09797257 6.1370529 11.76872323 4 15.375 C0.49769585 18.43951613 0.49769585 18.43951613 -3 18.625 C-5.78940313 18.3714179 -7.38932734 17.8215583 -10 16.625 C-12.64958015 13.14742605 -12.71480143 10.64555058 -12.48046875 6.3515625 C-12 4 -12 4 -9.9375 1.375 C-6.25759541 -0.34750853 -4.02304567 -0.57472081 0 0 Z " fill="#7DD5C1" transform="translate(137,59)"/>
<path d="M0 0 C1.98 0 3.96 0 6 0 C5.01 0.66 4.02 1.32 3 2 C2.58492821 4.53193794 2.35123064 6.82977253 2.25 9.375 C2.20746094 10.04789063 2.16492188 10.72078125 2.12109375 11.4140625 C1.94181921 14.78707978 1.91034891 17.78057631 3 21 C7.28383762 19.6717914 8.9783526 18.17477484 11.3125 14.375 C11.82425781 13.55773437 12.33601563 12.74046875 12.86328125 11.8984375 C13.23839844 11.27195312 13.61351562 10.64546875 14 10 C14.495 11.485 14.495 11.485 15 13 C13.85546875 14.9375 13.85546875 14.9375 12.1875 17 C10.35054999 19.30382329 8.63815961 21.54276059 7 24 C-0.53138931 29.05994895 -8.84476926 32.88031065 -18 32 C-18.33 31.34 -18.66 30.68 -19 30 C-18.20335938 29.731875 -17.40671875 29.46375 -16.5859375 29.1875 C-10.39613466 26.89832717 -5.62576294 24.90789401 -1.98046875 19.2421875 C-0.22925334 15.23741601 -0.02103322 11.32583296 0 7 C0.01417969 6.27683594 0.02835938 5.55367188 0.04296875 4.80859375 C0.05915912 3.20574694 0.03483804 1.60254995 0 0 Z " fill="#67A0A6" transform="translate(131,81)"/>
<path d="M0 0 C1.01688584 2.6439032 0.9773725 4.11816583 0.4375 6.9375 C-1 10 -1 10 -3.9375 12.4375 C-6.87567447 14.89597251 -7.91420735 16.42226941 -9.2109375 19.953125 C-10.20740949 22.53803253 -11.4376838 24.96579645 -12.6875 27.4375 C-13.12449219 28.30246094 -13.56148437 29.16742188 -14.01171875 30.05859375 C-14.33785156 30.69925781 -14.66398437 31.33992188 -15 32 C-16.32 31.34 -17.64 30.68 -19 30 C-18.01 26.7 -17.02 23.4 -16 20 C-16.9075 20.226875 -17.815 20.45375 -18.75 20.6875 C-22 21 -22 21 -24.375 19.5625 C-24.91125 19.046875 -25.4475 18.53125 -26 18 C-25.505 16.515 -25.505 16.515 -25 15 C-17.125 15.875 -17.125 15.875 -16 17 C-13.58517587 17.50059916 -13.58517587 17.50059916 -11 17 C-9.28288757 14.55503957 -9.28288757 14.55503957 -8 12 C-7.34 12 -6.68 12 -6 12 C-5.896875 10.906875 -5.79375 9.81375 -5.6875 8.6875 C-5 5 -5 5 -3.5625 3.0625 C-2 2 -2 2 0 2 C0 1.34 0 0.68 0 0 Z " fill="#CCE4E0" transform="translate(44,19)"/>
<path d="M0 0 C2.8125 -0.25 2.8125 -0.25 6 0 C7.875 1.75 7.875 1.75 9 4 C9 5.32 9 6.64 9 8 C8.01 8 7.02 8 6 8 C5.67 8.99 5.34 9.98 5 11 C2.23749964 12.38125018 0.05268901 12.19079306 -3 12 C-3.66 11.34 -4.32 10.68 -5 10 C-6.96690374 9.32707499 -6.96690374 9.32707499 -9.125 8.875 C-10.40375 8.58625 -11.6825 8.2975 -13 8 C-12.67 7.01 -12.34 6.02 -12 5 C-9.23547967 3.61773984 -6.9538637 3.90474613 -3.875 3.9375 C-2.77929688 3.94652344 -1.68359375 3.95554687 -0.5546875 3.96484375 C0.28835937 3.97644531 1.13140625 3.98804688 2 4 C2 3.34 2 2.68 2 2 C1.34 2 0.68 2 0 2 C0 1.34 0 0.68 0 0 Z " fill="#C7E5DF" transform="translate(25,21)"/>
<path d="M0 0 C1.32 0.66 2.64 1.32 4 2 C4 10.91 4 19.82 4 29 C7.63 29 11.26 29 15 29 C15 21.74 15 14.48 15 7 C30.84 7 46.68 7 63 7 C63 7.33 63 7.66 63 8 C47.49 8 31.98 8 16 8 C16.33 9.32 16.66 10.64 17 12 C17.08778022 13.35595597 17.13057475 14.71542629 17.1328125 16.07421875 C17.13474609 17.19860352 17.13474609 17.19860352 17.13671875 18.34570312 C17.13285156 19.11849609 17.12898438 19.89128906 17.125 20.6875 C17.13080078 21.8640918 17.13080078 21.8640918 17.13671875 23.06445312 C17.12667749 28.87332251 17.12667749 28.87332251 16 30 C11.71 30 7.42 30 3 30 C2.67 21.42 2.34 12.84 2 4 C0.35 4.33 -1.3 4.66 -3 5 C-2.01 3.35 -1.02 1.7 0 0 Z " fill="#DFE7E4" transform="translate(35,38)"/>
<path d="M0 0 C0.99 0.33 1.98 0.66 3 1 C3.33 5.95 3.66 10.9 4 16 C2.02 16.99 2.02 16.99 0 18 C-0.99 17.34 -1.98 16.68 -3 16 C-3.63751064 9.83739718 -2.42207234 5.65150213 0 0 Z " fill="#78C4B7" transform="translate(36,6)"/>
<path d="M0 0 C1.01688584 2.6439032 0.9773725 4.11816583 0.4375 6.9375 C-1 10 -1 10 -3.9375 12.4375 C-7.63183066 15.52867464 -8.33115293 17.57755528 -10 22 C-10.66 22.66 -11.32 23.32 -12 24 C-12.99 24 -13.98 24 -15 24 C-14.6875 21.625 -14.6875 21.625 -14 19 C-13.01 18.34 -12.02 17.68 -11 17 C-10.484375 16.13375 -9.96875 15.2675 -9.4375 14.375 C-8.963125 13.59125 -8.48875 12.8075 -8 12 C-7.34 12 -6.68 12 -6 12 C-5.896875 10.906875 -5.79375 9.81375 -5.6875 8.6875 C-5 5 -5 5 -3.5625 3.0625 C-2 2 -2 2 0 2 C0 1.34 0 0.68 0 0 Z " fill="#63ADA0" transform="translate(44,19)"/>
<path d="M0 0 C0.99 0.33 1.98 0.66 3 1 C3 2.32 3 3.64 3 5 C4.32 5.33 5.64 5.66 7 6 C8.125 9.75 8.125 9.75 7 12 C2.87828716 14.06085642 -0.36220546 15.42161769 -5 15 C-4.34 14.01 -3.68 13.02 -3 12 C-2.34 12 -1.68 12 -1 12 C-0.67 9.36 -0.34 6.72 0 4 C-0.66 3.67 -1.32 3.34 -2 3 C-1.34 2.01 -0.68 1.02 0 0 Z " fill="#E5EFED" transform="translate(44,17)"/>
<path d="M0 0 C8.14385151 -0.62645012 8.14385151 -0.62645012 11.5625 1.875 C13 4 13 4 13 6 C10.09704195 7.45147903 8.22738221 7.37239025 5 7 C2.72248656 5.52631484 0.97993 3.88564762 -1 2 C-0.67 1.34 -0.34 0.68 0 0 Z " fill="#1DA78D" transform="translate(17,26)"/>
<path d="M0 0 C0.33 0.66 0.66 1.32 1 2 C-0.65 4.31 -2.3 6.62 -4 9 C-2.68 9.33 -1.36 9.66 0 10 C-5.71735105 12.45029331 -9.79029227 13.33266291 -16 13 C-16.33 12.34 -16.66 11.68 -17 11 C-16.19175781 10.70867187 -15.38351563 10.41734375 -14.55078125 10.1171875 C-8.12163737 7.65100203 -3.79937617 5.83475626 0 0 Z " fill="#A2C3C8" transform="translate(129,100)"/>
<path d="M0 0 C0.99 0.33 1.98 0.66 3 1 C4.15448176 4.46344527 4.20405092 7.28837726 4.25 10.9375 C4.28867188 12.77634766 4.28867188 12.77634766 4.328125 14.65234375 C4 18 4 18 1 22 C1.33 16.39 1.66 10.78 2 5 C0.35 6.65 -1.3 8.3 -3 10 C-3.66 9.67 -4.32 9.34 -5 9 C-4.0409375 7.88625 -4.0409375 7.88625 -3.0625 6.75 C-1.21666593 4.2888879 -0.43930826 2.96533074 0 0 Z " fill="#BCD4D6" transform="translate(145,69)"/>
<path d="M0 0 C3.875 1.75 3.875 1.75 5 4 C5.55881444 8.09797257 5.1370529 9.76872323 3 13.375 C-0.09958116 16.08713352 -0.49728146 16.375 -4.3125 16.375 C-6.1378125 16.189375 -6.1378125 16.189375 -8 16 C-8 15.67 -8 15.34 -8 15 C-5.69 15 -3.38 15 -1 15 C-1.20625 14.38125 -1.4125 13.7625 -1.625 13.125 C-1.74875 12.42375 -1.8725 11.7225 -2 11 C-1.34 10.34 -0.68 9.68 0 9 C0.99 9 1.98 9 3 9 C1.78955868 4.39257135 1.78955868 4.39257135 0 0 Z " fill="#BBE7DD" transform="translate(138,61)"/>
<path d="M0 0 C3.63 0 7.26 0 11 0 C11 0.33 11 0.66 11 1 C9.63875 1.433125 9.63875 1.433125 8.25 1.875 C4.80833525 2.98747068 4.80833525 2.98747068 1 5 C1 10.61 1 16.22 1 22 C0.67 22 0.34 22 0 22 C0 14.74 0 7.48 0 0 Z " fill="#215F42" transform="translate(108,33)"/>
<path d="M0 0 C1.32 0.33 2.64 0.66 4 1 C3.75 3.3125 3.75 3.3125 3 6 C2.319375 6.474375 1.63875 6.94875 0.9375 7.4375 C-1.32419104 8.9004132 -1.32419104 8.9004132 -1.4375 11.9375 C-0.96903694 15.21674143 -0.21663014 16.59865068 2 19 C-1.875 17.125 -1.875 17.125 -3 16 C-3.5936444 11.2897723 -3.63528961 7.97278721 -1 3.9375 C-0.34 3.298125 0.32 2.65875 1 2 C0.67 1.34 0.34 0.68 0 0 Z " fill="#919191" transform="translate(555,85)"/>
<path d="M0 0 C1.3303125 0.495 1.3303125 0.495 2.6875 1 C8.31309323 2.65048396 14.19845814 2.15703422 20 2 C17.34802024 4.65197976 15.51734188 4.95942417 11.8125 5.25 C7.28173546 4.95290069 4.1677799 3.75485469 0 2 C0 1.34 0 0.68 0 0 Z " fill="#A0A0A0" transform="translate(369,103)"/>
<path d="M0 0 C1.98 0 3.96 0 6 0 C5.01 0.66 4.02 1.32 3 2 C2.50735468 4.73141223 2.16475244 7.3091573 1.9375 10.0625 C1.70403252 12.73697402 1.39760133 15.34048887 1 18 C0.34 18.33 -0.32 18.66 -1 19 C-0.9278125 18.21496094 -0.855625 17.42992188 -0.78125 16.62109375 C-0.28988048 11.05906373 0.12690185 5.58368122 0 0 Z " fill="#B9D1D1" transform="translate(131,81)"/>
<path d="M0 0 C0.66 0 1.32 0 2 0 C3.1577506 3.47325181 3.06866652 6.36067448 3 10 C1.68 9.34 0.36 8.68 -1 8 C-1.125 2.25 -1.125 2.25 0 0 Z " fill="#23877D" transform="translate(35,14)"/>
<path d="M0 0 C0.33 0.66 0.66 1.32 1 2 C0.01 3.485 0.01 3.485 -1 5 C-1.38499891 6.65549531 -1.72793135 8.3222433 -2 10 C1.3 10 4.6 10 8 10 C8 10.33 8 10.66 8 11 C3.71 11 -0.58 11 -5 11 C-3.92289822 6.69159287 -2.96052484 3.36423277 0 0 Z " fill="#909090" transform="translate(265,95)"/>
<path d="M0 0 C-0.99 0.495 -0.99 0.495 -2 1 C-1.01 1.66 -0.02 2.32 1 3 C-1.75078884 3.91692961 -3.35948913 4.10886083 -6.1875 4.0625 C-8.0746875 4.0315625 -8.0746875 4.0315625 -10 4 C-10.33 3.34 -10.66 2.68 -11 2 C-9.73392393 1.46770674 -8.46189588 0.94955456 -7.1875 0.4375 C-6.47980469 0.14746094 -5.77210937 -0.14257812 -5.04296875 -0.44140625 C-3 -1 -3 -1 0 0 Z " fill="#D0E2E3" transform="translate(123,109)"/>
<path d="M0 0 C0 0.66 0 1.32 0 2 C-7.28571429 5.42857143 -7.28571429 5.42857143 -12 5 C-5.5 -1.96428571 -5.5 -1.96428571 0 0 Z " fill="#F0F5F3" transform="translate(51,27)"/>
<path d="M0 0 C0.33 0.66 0.66 1.32 1 2 C1.99 2 2.98 2 4 2 C3.34 4.31 2.68 6.62 2 9 C0.68 8.34 -0.64 7.68 -2 7 C-1.34 4.69 -0.68 2.38 0 0 Z " fill="#E3EEEB" transform="translate(27,42)"/>
<path d="M0 0 C-0.75 4.75 -0.75 4.75 -3 7 C-3.99 7 -4.98 7 -6 7 C-5.6875 4.625 -5.6875 4.625 -5 2 C-2 0 -2 0 0 0 Z " fill="#329F8B" transform="translate(35,36)"/>
<path d="M0 0 C2.3125 -0.25 2.3125 -0.25 5 0 C6.8125 2 6.8125 2 8 4 C5.36 4 2.72 4 0 4 C0 2.68 0 1.36 0 0 Z " fill="#43A797" transform="translate(19,34)"/>
<path d="M0 0 C3.22430866 4.83646298 3.09242903 7.26939984 3 13 C1.02 13.99 1.02 13.99 -1 15 C-0.67 14.34 -0.34 13.68 0 13 C0.07092842 10.7927077 0.08415025 8.58332548 0.0625 6.375 C0.05347656 5.18648437 0.04445312 3.99796875 0.03515625 2.7734375 C0.02355469 1.85820312 0.01195312 0.94296875 0 0 Z " fill="#B4DFD8" transform="translate(39,9)"/>
<path d="M0 0 C0.99 0.33 1.98 0.66 3 1 C2.34 1 1.68 1 1 1 C1 1.99 1 2.98 1 4 C1.66 4 2.32 4 3 4 C3 4.66 3 5.32 3 6 C3.66 6 4.32 6 5 6 C5 6.66 5 7.32 5 8 C3.35 7.67 1.7 7.34 0 7 C0 4.69 0 2.38 0 0 Z M5 2 C5.33 2.66 5.66 3.32 6 4 C5.01 3.67 4.02 3.34 3 3 C3.66 2.67 4.32 2.34 5 2 Z " fill="#166974" transform="translate(133,83)"/>
<path d="M0 0 C0.33 0.99 0.66 1.98 1 3 C0.01 3.66 -0.98 4.32 -2 5 C-3.19232613 7.05003955 -3.19232613 7.05003955 -4 9 C-4.66 8.67 -5.32 8.34 -6 8 C-6 7.01 -6 6.02 -6 5 C-6.99 4.67 -7.98 4.34 -9 4 C-8.34 4 -7.68 4 -7 4 C-6.67 3.34 -6.34 2.68 -6 2 C-4.02 2 -2.04 2 0 2 C0 1.34 0 0.68 0 0 Z " fill="#DAE7E6" transform="translate(37,28)"/>
<path d="M0 0 C0.33 0.66 0.66 1.32 1 2 C4.02934491 2.65772428 4.02934491 2.65772428 7 3 C7 3.99 7 4.98 7 6 C8.32 6.33 9.64 6.66 11 7 C8.03155565 7.35338623 5.84401782 7.5417682 3.265625 5.88671875 C1.79651181 4.64496832 0.39295186 3.32662082 -1 2 C-0.67 1.34 -0.34 0.68 0 0 Z " fill="#409C91" transform="translate(17,26)"/>
<path d="M0 0 C2.475 0.99 2.475 0.99 5 2 C5 3.32 5 4.64 5 6 C3.68 5.67 2.36 5.34 1 5 C0.67 3.35 0.34 1.7 0 0 Z " fill="#369E8F" transform="translate(29,23)"/>
<path d="M0 0 C0.99 0.33 1.98 0.66 3 1 C-0.465 3.97 -0.465 3.97 -4 7 C-4.33 6.01 -4.66 5.02 -5 4 C-2.6875 1.9375 -2.6875 1.9375 0 0 Z " fill="#8E8E8E" transform="translate(558,61)"/>
<path d="M0 0 C1.65 0 3.3 0 5 0 C5.33 0.99 5.66 1.98 6 3 C4.02 3 2.04 3 0 3 C0 2.01 0 1.02 0 0 Z " fill="#1B847C" transform="translate(24,29)"/>
<path d="M0 0 C2.97 0.495 2.97 0.495 6 1 C3.82575883 3.50037734 2.26954202 4.43628586 -1 5 C-0.67 3.35 -0.34 1.7 0 0 Z " fill="#BDD9D1" transform="translate(44,23)"/>
<path d="M0 0 C1.98 0 3.96 0 6 0 C6.33 0.99 6.66 1.98 7 3 C6.34 3 5.68 3 5 3 C4.34 3.66 3.68 4.32 3 5 C3 4.01 3 3.02 3 2 C2.01 2 1.02 2 0 2 C0 1.34 0 0.68 0 0 Z " fill="#9ED1C7" transform="translate(25,21)"/>
</svg>
