<?xml version="1.0" encoding="UTF-8"?>
<svg version="1.1" xmlns="http://www.w3.org/2000/svg" width="427" height="335">
<path d="M0 0 C12.21 0 24.42 0 37 0 C37 33.66 37 67.32 37 102 C-6.89 102 -50.78 102 -96 102 C-96 150.18 -96 198.36 -96 248 C-107.55 248 -119.1 248 -131 248 C-132.65668387 246.34331613 -132.12460829 244.35172755 -132.13374341 242.13824701 C-132.13151268 241.43758033 -132.12928196 240.73691365 -132.12698364 240.01501465 C-132.12854363 239.27574281 -132.13010362 238.53647098 -132.13171089 237.77479696 C-132.1357236 235.27888127 -132.13253021 232.7830256 -132.12939453 230.28710938 C-132.13074845 228.50535547 -132.13252833 226.72360185 -132.13470459 224.94184875 C-132.13928002 220.08868288 -132.13748892 215.23553817 -132.1343255 210.3823719 C-132.13180246 205.31525742 -132.13413928 200.24814482 -132.13571167 195.18103027 C-132.13753353 186.66999993 -132.13512663 178.15897825 -132.13037109 169.64794922 C-132.12492844 159.79306325 -132.12669109 149.93819797 -132.1321975 140.08331251 C-132.13672816 131.63833422 -132.13737941 123.19336216 -132.13475883 114.74838305 C-132.1331958 109.69746086 -132.133003 104.6465484 -132.13629532 99.59562683 C-132.13917336 94.84823317 -132.13719959 90.10086632 -132.13140106 85.35347557 C-132.1300731 83.6058831 -132.13046819 81.85828839 -132.13266373 80.11069679 C-132.13537383 77.73542867 -132.13199585 75.36024783 -132.12698364 72.98498535 C-132.12921436 72.28431867 -132.13144509 71.58365199 -132.13374341 70.86175299 C-132.11414987 66.11414987 -132.11414987 66.11414987 -131 65 C-129.31708304 64.90383193 -127.63010439 64.87812309 -125.94444275 64.87974548 C-124.84922806 64.87837082 -123.75401337 64.87699615 -122.62561035 64.87557983 C-121.41360962 64.87917511 -120.20160889 64.88277039 -118.95288086 64.88647461 C-117.05071556 64.88625557 -117.05071556 64.88625557 -115.11012268 64.8860321 C-111.62267578 64.88574415 -108.13526299 64.89164055 -104.64782405 64.89860606 C-101.00696277 64.90483993 -97.36610078 64.90544342 -93.72523499 64.90663147 C-86.82623028 64.90974469 -79.92724135 64.91795795 -73.0282436 64.92798096 C-63.7088108 64.94122772 -54.38937372 64.94664208 -45.06993389 64.95248318 C-30.37994411 64.96189785 -15.6899876 64.98181682 -1 65 C-0.505 32.825 -0.505 32.825 0 0 Z " fill="#05532D" transform="translate(289,79)"/>
<path d="M0 0 C4.00708866 3.44879765 5.9437841 7.38563627 8.1875 12.0625 C8.54263672 12.78244141 8.89777344 13.50238281 9.26367188 14.24414062 C13.3940576 22.68517559 14.9411013 31.81424979 12.05859375 41 C10.14052366 44.94436984 8.34958895 47.67321033 5.125 50.6875 C1.58516281 56.2054815 3.19251719 62.71602483 4 69 C6.03691614 65.3080895 7.36827996 62.73521955 7 58.5 C6.62548123 54.19303418 7.72258216 51.67679507 10 48 C12.23706429 45.58889466 14.65580109 43.41990207 17.125 41.25 C18.40064764 40.11184731 19.67419324 38.97133289 20.9453125 37.828125 C21.50750488 37.3321582 22.06969727 36.83619141 22.64892578 36.32519531 C24.12500052 35.02115404 24.12500052 35.02115404 25 33 C25.66 33 26.32 33 27 33 C27.39448454 40.68514323 26.53054549 46.72468171 24 54 C28.62 51.69 33.24 49.38 38 47 C38.33 47.99 38.66 48.98 39 50 C40.49985609 51.66710346 40.49985609 51.66710346 42 53 C41.00742188 53.47308594 40.01484375 53.94617187 38.9921875 54.43359375 C26.96623923 60.2513995 15.17592355 66.46395155 5.453125 75.78515625 C4 77 4 77 2 77 C2 77.99 2 78.98 2 80 C2.99 80 3.98 80 5 80 C5.495 78.515 5.495 78.515 6 77 C7.7364743 75.84235047 9.53487162 74.98285002 11.40625 74.0625 C13.33757598 73.01050642 13.33757598 73.01050642 14 70 C15.83911133 69.43286133 15.83911133 69.43286133 18 69 C19.80543146 68.13774105 19.80543146 68.13774105 21.57421875 67.07421875 C22.2379248 66.69128662 22.90163086 66.30835449 23.58544922 65.91381836 C24.27912598 65.5091333 24.97280273 65.10444824 25.6875 64.6875 C40.84558315 56 40.84558315 56 45 56 C45 56.99 45 57.98 45 59 C44.20734741 59.36182373 44.20734741 59.36182373 43.39868164 59.73095703 C29.64518661 65.88668873 29.64518661 65.88668873 17 74 C17.33 74.66 17.66 75.32 18 76 C98.19 76.495 98.19 76.495 180 77 C180 88.88 180 100.76 180 113 C135.12 113 90.24 113 44 113 C44 118.61 44 124.22 44 130 C43.67 130 43.34 130 43 130 C42.67 146.17 42.34 162.34 42 179 C30.12 179 18.24 179 6 179 C5.67 147.65 5.34 116.3 5 84 C-0.97585421 89.93161013 -0.97585421 89.93161013 -3 97 C-5.48294858 100.76723233 -7.96425343 102.98212672 -12 105 C-12.66 105 -13.32 105 -14 105 C-14.23847656 105.62390625 -14.47695312 106.2478125 -14.72265625 106.890625 C-16.50712962 111.23448066 -18.46108704 115.49065447 -20.4375 119.75 C-21.03014648 121.06291016 -21.03014648 121.06291016 -21.63476562 122.40234375 C-22.02212891 123.23378906 -22.40949219 124.06523438 -22.80859375 124.921875 C-23.15720459 125.68081055 -23.50581543 126.43974609 -23.86499023 127.22167969 C-25 129 -25 129 -28 130 C-27.67 127.69 -27.34 125.38 -27 123 C-27.66 123.99 -28.32 124.98 -29 126 C-29.66 126 -30.32 126 -31 126 C-32.32162033 122.353176 -31.99570264 120.98956197 -30.48828125 117.328125 C-29.7763985 115.96169681 -29.05045736 114.60252431 -28.3125 113.25 C-27.56625594 111.82628116 -26.82145327 110.40180585 -26.078125 108.9765625 C-25.71783203 108.29368164 -25.35753906 107.61080078 -24.98632812 106.90722656 C-23.14562407 103.34792457 -21.58537802 99.67807701 -20 96 C-19.67 95.34 -19.34 94.68 -19 94 C-23.70269126 93.71208013 -27.17816068 93.63954416 -31.5625 95.5625 C-36.234391 97.51619987 -40.31730329 97.0904038 -44.94311523 95.21020508 C-46.82401817 94.24993779 -48.62938863 93.21573096 -50.4375 92.125 C-51.37239258 91.59712891 -51.37239258 91.59712891 -52.32617188 91.05859375 C-56.86645871 88.40062387 -56.86645871 88.40062387 -58 85 C-51.35127901 81.20073086 -44.51687685 81.17080016 -37 82 C-34.28154692 83.01568577 -33.15783325 83.95880639 -31 86 C-30.38125 86.53625 -29.7625 87.0725 -29.125 87.625 C-28 89 -28 89 -28 91 C-20.59738292 91.64205775 -20.59738292 91.64205775 -13.8125 89.125 C-12.41157755 87.74580492 -12.41157755 87.74580492 -11 86 C-10.29488281 85.15566406 -9.58976562 84.31132813 -8.86328125 83.44140625 C-6.8697371 80.98861633 -4.92044177 78.51022211 -3 76 C-12.51789676 73.37594099 -12.51789676 73.37594099 -21.625 76 C-26.97699618 78.82862156 -32.08461869 78.96757166 -38 78 C-44.89450758 75.48035518 -51.02070083 71.55741674 -56.96484375 67.296875 C-61.10071203 64.66135049 -65.17884452 63.67271937 -70 63 C-67.67171901 59.50757851 -66.55503749 59.20430247 -62.6875 57.875 C-61.74261719 57.54242188 -60.79773437 57.20984375 -59.82421875 56.8671875 C-50.58741812 54.03099146 -38.38883556 52.8611356 -29.375 57 C-24.19980508 60.08742398 -19.71018866 64.57962268 -17 70 C-13.95418731 70.46954261 -13.95418731 70.46954261 -10.4375 70.625 C-9.23996094 70.69976562 -8.04242188 70.77453125 -6.80859375 70.8515625 C-5.41833984 70.92503906 -5.41833984 70.92503906 -4 71 C-5.66961207 67.78158717 -5.66961207 67.78158717 -8.609375 67.296875 C-10.16398437 67.02617187 -10.16398437 67.02617187 -11.75 66.75 C-16.86519653 65.55360558 -19.61882407 64.42963573 -22.69921875 60.16796875 C-24.78681337 56.68864438 -26.75214165 53.16042935 -28.60546875 49.55078125 C-29.90254474 47.1782585 -31.321521 45.11419036 -33 43 C-24.34878027 43.20247536 -16.21108348 45.27605899 -10 51.6875 C-8.07911404 54.86896738 -7.64741367 56.44438857 -7.125 60 C-6.36289108 65.04516102 -4.49562703 67.05833268 -0.4609375 70.0390625 C0.02117187 70.35617188 0.50328125 70.67328125 1 71 C1.59290124 59.68724783 1.59290124 59.68724783 -2.875 49.9375 C-3.41125 49.45152344 -3.9475 48.96554688 -4.5 48.46484375 C-7.92369927 45.12138743 -8.83094783 40.60495206 -9.31640625 35.99609375 C-9.22139235 30.42441907 -6.9231005 25.24355679 -5.0625 20.0625 C-2.66593269 13.34466105 -0.54122465 7.13901088 0 0 Z M10 62 C10.33 62.66 10.66 63.32 11 64 C11.66 63.34 12.32 62.68 13 62 C12.01 62 11.02 62 10 62 Z M0 81 C1 83 1 83 1 83 Z M-2 84 C-1 87 -1 87 -1 87 Z M-23 110 C-24.42944945 112.35438733 -25.08661261 113.48032433 -24.625 116.25 C-24.41875 116.8275 -24.2125 117.405 -24 118 C-22.33378575 116.8354799 -22.33378575 116.8354799 -21 115 C-21.23043864 112.34533951 -21.23043864 112.34533951 -22 110 C-22.33 110 -22.66 110 -23 110 Z M-26 117 C-26.33 118.65 -26.66 120.3 -27 122 C-26.01 121.67 -25.02 121.34 -24 121 C-24.66 119.68 -25.32 118.36 -26 117 Z " fill="#05522C" transform="translate(79,2)"/>
<path d="M0 0 C11.88 0 23.76 0 36 0 C36 38.28 36 76.56 36 116 C24.12 116 12.24 116 0 116 C0 77.72 0 39.44 0 0 Z " fill="#06522D" transform="translate(228,211)"/>
<path d="M0 0 C0.99 0.33 1.98 0.66 3 1 C11.15698035 20.72406953 7.97494721 43.82286135 0.375 63.125 C-11.30339371 88.64770505 -32.70396622 108.7203369 -58.83203125 118.90234375 C-71.81106625 123.39939533 -83.29528816 124.53627133 -97 124 C-97 123.34 -97 122.68 -97 122 C-96.030625 121.87625 -95.06125 121.7525 -94.0625 121.625 C-76.36543944 119.03572974 -62.7182247 111.44708666 -51.1875 97.625 C-47.60080512 92.7724128 -45.181671 87.60657363 -43 82 C-42.690625 81.23300781 -42.38125 80.46601563 -42.0625 79.67578125 C-37.65943271 67.20748012 -38.6893059 53.75629757 -41 41 C-41.34118334 38.66780158 -41.67654959 36.33472384 -42 34 C-40.98421875 33.92523438 -39.9684375 33.85046875 -38.921875 33.7734375 C-27.24560478 32.73266765 -16.64562689 30.0396088 -8.4609375 20.9765625 C-3.70689927 14.54462843 -1.38479022 7.80518126 0 0 Z " fill="#1A737D" transform="translate(401,190)"/>
<path d="M0 0 C4.00708866 3.44879765 5.9437841 7.38563627 8.1875 12.0625 C8.54263672 12.78244141 8.89777344 13.50238281 9.26367188 14.24414062 C13.3940576 22.68517559 14.9411013 31.81424979 12.05859375 41 C10.14052366 44.94436984 8.34958895 47.67321033 5.125 50.6875 C1.58516281 56.2054815 3.19251719 62.71602483 4 69 C6.03691614 65.3080895 7.36827996 62.73521955 7 58.5 C6.62548123 54.19303418 7.72258216 51.67679507 10 48 C12.23706429 45.58889466 14.65580109 43.41990207 17.125 41.25 C18.40064764 40.11184731 19.67419324 38.97133289 20.9453125 37.828125 C21.50750488 37.3321582 22.06969727 36.83619141 22.64892578 36.32519531 C24.12500052 35.02115404 24.12500052 35.02115404 25 33 C25.66 33 26.32 33 27 33 C27.39448454 40.68514323 26.53054549 46.72468171 24 54 C28.62 51.69 33.24 49.38 38 47 C38.33 47.99 38.66 48.98 39 50 C40.49985609 51.66710346 40.49985609 51.66710346 42 53 C41.00742188 53.47308594 40.01484375 53.94617187 38.9921875 54.43359375 C26.96623923 60.2513995 15.17592355 66.46395155 5.453125 75.78515625 C4 77 4 77 2 77 C2 77.99 2 78.98 2 80 C3.32 80 4.64 80 6 80 C5.43154042 83.27741512 4.58108467 84.67570567 2.0625 86.8125 C-1.19975253 89.88103207 -1.89401527 92.65505999 -3 97 C-5.48294858 100.76723233 -7.96425343 102.98212672 -12 105 C-12.66 105 -13.32 105 -14 105 C-14.23847656 105.62390625 -14.47695312 106.2478125 -14.72265625 106.890625 C-16.50712962 111.23448066 -18.46108704 115.49065447 -20.4375 119.75 C-21.03014648 121.06291016 -21.03014648 121.06291016 -21.63476562 122.40234375 C-22.02212891 123.23378906 -22.40949219 124.06523438 -22.80859375 124.921875 C-23.15720459 125.68081055 -23.50581543 126.43974609 -23.86499023 127.22167969 C-25 129 -25 129 -28 130 C-27.67 127.69 -27.34 125.38 -27 123 C-27.66 123.99 -28.32 124.98 -29 126 C-29.66 126 -30.32 126 -31 126 C-32.32162033 122.353176 -31.99570264 120.98956197 -30.48828125 117.328125 C-29.7763985 115.96169681 -29.05045736 114.60252431 -28.3125 113.25 C-27.56625594 111.82628116 -26.82145327 110.40180585 -26.078125 108.9765625 C-25.71783203 108.29368164 -25.35753906 107.61080078 -24.98632812 106.90722656 C-23.14562407 103.34792457 -21.58537802 99.67807701 -20 96 C-19.67 95.34 -19.34 94.68 -19 94 C-23.70269126 93.71208013 -27.17816068 93.63954416 -31.5625 95.5625 C-36.234391 97.51619987 -40.31730329 97.0904038 -44.94311523 95.21020508 C-46.82401817 94.24993779 -48.62938863 93.21573096 -50.4375 92.125 C-51.37239258 91.59712891 -51.37239258 91.59712891 -52.32617188 91.05859375 C-56.86645871 88.40062387 -56.86645871 88.40062387 -58 85 C-51.35127901 81.20073086 -44.51687685 81.17080016 -37 82 C-34.28154692 83.01568577 -33.15783325 83.95880639 -31 86 C-30.38125 86.53625 -29.7625 87.0725 -29.125 87.625 C-28 89 -28 89 -28 91 C-20.59738292 91.64205775 -20.59738292 91.64205775 -13.8125 89.125 C-12.41157755 87.74580492 -12.41157755 87.74580492 -11 86 C-10.29488281 85.15566406 -9.58976562 84.31132813 -8.86328125 83.44140625 C-6.8697371 80.98861633 -4.92044177 78.51022211 -3 76 C-12.51789676 73.37594099 -12.51789676 73.37594099 -21.625 76 C-26.97699618 78.82862156 -32.08461869 78.96757166 -38 78 C-44.89450758 75.48035518 -51.02070083 71.55741674 -56.96484375 67.296875 C-61.10071203 64.66135049 -65.17884452 63.67271937 -70 63 C-67.67171901 59.50757851 -66.55503749 59.20430247 -62.6875 57.875 C-61.74261719 57.54242188 -60.79773437 57.20984375 -59.82421875 56.8671875 C-50.58741812 54.03099146 -38.38883556 52.8611356 -29.375 57 C-24.19980508 60.08742398 -19.71018866 64.57962268 -17 70 C-13.95418731 70.46954261 -13.95418731 70.46954261 -10.4375 70.625 C-9.23996094 70.69976562 -8.04242188 70.77453125 -6.80859375 70.8515625 C-5.41833984 70.92503906 -5.41833984 70.92503906 -4 71 C-5.66961207 67.78158717 -5.66961207 67.78158717 -8.609375 67.296875 C-10.16398437 67.02617187 -10.16398437 67.02617187 -11.75 66.75 C-16.86519653 65.55360558 -19.61882407 64.42963573 -22.69921875 60.16796875 C-24.78681337 56.68864438 -26.75214165 53.16042935 -28.60546875 49.55078125 C-29.90254474 47.1782585 -31.321521 45.11419036 -33 43 C-24.34878027 43.20247536 -16.21108348 45.27605899 -10 51.6875 C-8.07911404 54.86896738 -7.64741367 56.44438857 -7.125 60 C-6.36289108 65.04516102 -4.49562703 67.05833268 -0.4609375 70.0390625 C0.02117187 70.35617188 0.50328125 70.67328125 1 71 C1.59290124 59.68724783 1.59290124 59.68724783 -2.875 49.9375 C-3.41125 49.45152344 -3.9475 48.96554688 -4.5 48.46484375 C-7.92369927 45.12138743 -8.83094783 40.60495206 -9.31640625 35.99609375 C-9.22139235 30.42441907 -6.9231005 25.24355679 -5.0625 20.0625 C-2.66593269 13.34466105 -0.54122465 7.13901088 0 0 Z M10 62 C10.33 62.66 10.66 63.32 11 64 C11.66 63.34 12.32 62.68 13 62 C12.01 62 11.02 62 10 62 Z M0 81 C1 83 1 83 1 83 Z M-2 84 C-1 87 -1 87 -1 87 Z M-23 110 C-24.42944945 112.35438733 -25.08661261 113.48032433 -24.625 116.25 C-24.41875 116.8275 -24.2125 117.405 -24 118 C-22.33378575 116.8354799 -22.33378575 116.8354799 -21 115 C-21.23043864 112.34533951 -21.23043864 112.34533951 -22 110 C-22.33 110 -22.66 110 -23 110 Z M-26 117 C-26.33 118.65 -26.66 120.3 -27 122 C-26.01 121.67 -25.02 121.34 -24 121 C-24.66 119.68 -25.32 118.36 -26 117 Z " fill="#18807B" transform="translate(79,2)"/>
<path d="M0 0 C6.14798202 3.65485131 11.57540379 9.70076305 13.6875 16.5625 C14.77140703 25.26798492 13.78853565 32.33716038 8.6875 39.5625 C3.49315162 45.11924477 -3.37863005 48.07939316 -10.875 49 C-19.409113 47.91384016 -25.54361205 45.07533957 -31.3125 38.5625 C-35.3688573 32.80622417 -36.75980847 26.51144481 -36.12890625 19.53125 C-34.88412579 13.06352472 -31.40931232 7.02707087 -26.24609375 2.91796875 C-18.54619151 -2.00259493 -8.67129125 -3.80016748 0 0 Z " fill="#67CEB7" transform="translate(376.3125,160.4375)"/>
<path d="M0 0 C-1.26612428 2.53224857 -2.19617403 2.70485869 -4.76171875 3.8125 C-5.54474365 4.16094971 -6.32776855 4.50939941 -7.13452148 4.8684082 C-7.97700439 5.2418335 -8.8194873 5.61525879 -9.6875 6 C-19.37034857 10.42751423 -28.72350605 15.63205902 -36.25390625 23.29296875 C-38 25 -38 25 -40 25 C-40 25.99 -40 26.98 -40 28 C-38.68 28 -37.36 28 -36 28 C-36.56845958 31.27741512 -37.41891533 32.67570567 -39.9375 34.8125 C-43.19975253 37.88103207 -43.89401527 40.65505999 -45 45 C-47.48294858 48.76723233 -49.96425343 50.98212672 -54 53 C-54.66 53 -55.32 53 -56 53 C-56.23847656 53.62390625 -56.47695312 54.2478125 -56.72265625 54.890625 C-58.50712962 59.23448066 -60.46108704 63.49065447 -62.4375 67.75 C-63.03014648 69.06291016 -63.03014648 69.06291016 -63.63476562 70.40234375 C-64.02212891 71.23378906 -64.40949219 72.06523438 -64.80859375 72.921875 C-65.15720459 73.68081055 -65.50581543 74.43974609 -65.86499023 75.22167969 C-67 77 -67 77 -70 78 C-69.67 75.69 -69.34 73.38 -69 71 C-69.66 71.99 -70.32 72.98 -71 74 C-71.66 74 -72.32 74 -73 74 C-74.32162033 70.353176 -73.99570264 68.98956197 -72.48828125 65.328125 C-71.7763985 63.96169681 -71.05045736 62.60252431 -70.3125 61.25 C-69.56625594 59.82628116 -68.82145327 58.40180585 -68.078125 56.9765625 C-67.71783203 56.29368164 -67.35753906 55.61080078 -66.98632812 54.90722656 C-65.14562407 51.34792457 -63.58537802 47.67807701 -62 44 C-61.505 43.01 -61.505 43.01 -61 42 C-65.70269126 41.71208013 -69.17816068 41.63954416 -73.5625 43.5625 C-78.234391 45.51619987 -82.31730329 45.0904038 -86.94311523 43.21020508 C-88.82401817 42.24993779 -90.62938863 41.21573096 -92.4375 40.125 C-93.37239258 39.59712891 -93.37239258 39.59712891 -94.32617188 39.05859375 C-98.86645871 36.40062387 -98.86645871 36.40062387 -100 33 C-93.35127901 29.20073086 -86.51687685 29.17080016 -79 30 C-76.28154692 31.01568577 -75.15783325 31.95880639 -73 34 C-72.38125 34.53625 -71.7625 35.0725 -71.125 35.625 C-70 37 -70 37 -70 39 C-62.59738292 39.64205775 -62.59738292 39.64205775 -55.8125 37.125 C-54.41157755 35.74580492 -54.41157755 35.74580492 -53 34 C-51.94232422 32.73349609 -51.94232422 32.73349609 -50.86328125 31.44140625 C-48.8697371 28.98861633 -46.92044177 26.51022211 -45 24 C-45.66 23.34 -46.32 22.68 -47 22 C-44.03 22 -41.06 22 -38 22 C-37.505 20.515 -37.505 20.515 -37 19 C-29.74363824 12.7545436 -21.23638123 7.82675381 -13 3 C-12.19949219 2.52949219 -11.39898437 2.05898438 -10.57421875 1.57421875 C-6.72173823 -0.53702763 -4.23280939 -1.58730352 0 0 Z M-42 29 C-41 31 -41 31 -41 31 Z M-44 32 C-43 35 -43 35 -43 35 Z M-65 58 C-66.42944945 60.35438733 -67.08661261 61.48032433 -66.625 64.25 C-66.41875 64.8275 -66.2125 65.405 -66 66 C-64.33378575 64.8354799 -64.33378575 64.8354799 -63 63 C-63.23043864 60.34533951 -63.23043864 60.34533951 -64 58 C-64.33 58 -64.66 58 -65 58 Z M-68 65 C-68.33 66.65 -68.66 68.3 -69 70 C-68.01 69.67 -67.02 69.34 -66 69 C-66.66 67.68 -67.32 66.36 -68 65 Z " fill="#169885" transform="translate(121,54)"/>
<path d="M0 0 C0.33 0 0.66 0 1 0 C1.84761398 21.4180912 2.14079378 42.79737044 2.10139394 64.23064685 C2.09499395 68.32377104 2.09454383 72.4168966 2.09336853 76.51002502 C2.09030292 84.2048894 2.08215636 91.89973897 2.07201904 99.59459692 C2.06070653 108.37870164 2.05530996 117.16280719 2.05032361 125.94691741 C2.03996771 143.96462162 2.02168435 161.98230562 2 180 C12.89 180 23.78 180 35 180 C35 132.15 35 84.3 35 35 C37.31 35 39.62 35 42 35 C42 35.33 42 35.66 42 36 C40.02 36 38.04 36 36 36 C36 84.18 36 132.36 36 182 C24.45 182 12.9 182 1 182 C-0.65784589 180.34215411 -0.12210963 178.34824139 -0.12908131 176.13358492 C-0.12616847 175.43223612 -0.12325563 174.73088732 -0.12025452 174.00828552 C-0.12110894 173.26830812 -0.12196337 172.52833072 -0.12284368 171.76592976 C-0.12450069 169.26767587 -0.11897353 166.76948802 -0.11352539 164.27124023 C-0.11324354 162.48786419 -0.11340121 160.70448803 -0.1139679 158.92111206 C-0.11425596 154.06387809 -0.10835788 149.20666859 -0.10139394 144.34944034 C-0.09516179 139.27919052 -0.09455671 134.20894019 -0.09336853 129.13868713 C-0.0902548 119.53036307 -0.08204086 109.92205032 -0.07201904 100.31373125 C-0.06085919 89.37800472 -0.05534778 78.44227766 -0.05032361 67.50654685 C-0.03985828 45.00435828 -0.02225804 22.50217978 0 0 Z " fill="#174B34" transform="translate(157,145)"/>
<path d="M0 0 C0 0.99 0 1.98 0 3 C-0.52843506 3.24121582 -1.05687012 3.48243164 -1.60131836 3.73095703 C-15.35481339 9.88668873 -15.35481339 9.88668873 -28 18 C-27.67 18.66 -27.34 19.32 -27 20 C53.19 20.495 53.19 20.495 135 21 C135 32.88 135 44.76 135 57 C90.12 57 45.24 57 -1 57 C-1 56.67 -1 56.34 -1 56 C9.49968114 55.79279924 19.99964502 55.6069113 30.5 55.4375 C31.68274946 55.4184001 31.68274946 55.4184001 32.88939285 55.39891434 C57.41509849 55.00886252 81.91266048 54.99097982 106.4375 55.4375 C107.49428452 55.45672075 107.49428452 55.45672075 108.57241821 55.4763298 C117.04874768 55.63216754 125.52425984 55.81292933 134 56 C134 44.78 134 33.56 134 22 C77.24 22 20.48 22 -38 22 C-38 27.94 -38 33.88 -38 40 C-38.33 40 -38.66 40 -39 40 C-39 33.73 -39 27.46 -39 21 C-36.69 19.68 -34.38 18.36 -32 17 C-31.67 16.01 -31.34 15.02 -31 14 C-29.16088867 13.43286133 -29.16088867 13.43286133 -27 13 C-25.19456854 12.13774105 -25.19456854 12.13774105 -23.42578125 11.07421875 C-22.7620752 10.69128662 -22.09836914 10.30835449 -21.41455078 9.91381836 C-20.72087402 9.5091333 -20.02719727 9.10444824 -19.3125 8.6875 C-4.15441685 0 -4.15441685 0 0 0 Z " fill="#224F38" transform="translate(124,58)"/>
<path d="M0 0 C4.00708866 3.44879765 5.9437841 7.38563627 8.1875 12.0625 C8.54263672 12.78244141 8.89777344 13.50238281 9.26367188 14.24414062 C13.45649135 22.8127679 14.82407236 31.84659406 12.05859375 41.17578125 C9.86466243 45.92815286 9.86466243 45.92815286 8 48 C5.32421875 48.7578125 5.32421875 48.7578125 3 49 C1.27382906 45.54765812 1.49889564 41.77455234 2 38 C4 34.9375 4 34.9375 6 33 C5.01 33 4.02 33 3 33 C1.9673198 30.21176345 1.95490707 29.1322726 2.9375 26.25 C3.288125 25.5075 3.63875 24.765 4 24 C3.360625 23.855625 2.72125 23.71125 2.0625 23.5625 C0 23 0 23 -1 22 C-1.34067242 14.61542437 -1.16803601 7.30022508 0 0 Z " fill="#17B491" transform="translate(79,2)"/>
<path d="M0 0 C2.78005706 2.02135623 4.88226044 3.65421183 6.9609375 6.42578125 C7.2734375 9.23828125 7.2734375 9.23828125 6.9609375 11.42578125 C5.54412116 11.11396056 4.12749099 10.80129388 2.7109375 10.48828125 C1.92203125 10.31425781 1.133125 10.14023438 0.3203125 9.9609375 C-0.84757812 9.69603516 -0.84757812 9.69603516 -2.0390625 9.42578125 C-2.7609375 9.28140625 -3.4828125 9.13703125 -4.2265625 8.98828125 C-6.79171015 8.19220095 -7.61942924 6.6262128 -9.0390625 4.42578125 C-9.0390625 5.08578125 -9.0390625 5.74578125 -9.0390625 6.42578125 C-12.08001575 7.40323051 -14.03538937 7.58849343 -17.0390625 6.42578125 C-18.7890625 4.86328125 -18.7890625 4.86328125 -20.0390625 3.42578125 C-20.6990625 4.08578125 -21.3590625 4.74578125 -22.0390625 5.42578125 C-23.70911079 5.10982617 -25.37543833 4.77398166 -27.0390625 4.42578125 C-27.8640625 4.61140625 -28.6890625 4.79703125 -29.5390625 4.98828125 C-32.63615343 5.53027216 -34.25463715 4.77821642 -37.0390625 3.42578125 C-36.09466823 1.0326565 -35.50801855 -0.29920732 -33.25390625 -1.62109375 C-22.63120991 -4.90082847 -9.79847796 -5.93593802 0 0 Z " fill="#1DB090" transform="translate(52.0390625,60.57421875)"/>
<path d="M0 0 C8.15042045 0.19075452 15.5317821 1.91096573 21.703125 7.55859375 C26.11654083 12.64416774 26.10458809 16.62012623 26 23 C21.28156716 23.57776729 17.28619994 23.79712866 13.375 20.8125 C9.36155598 16.92039266 7.04907911 11.97689223 4.578125 7.0234375 C3.2285333 4.43783359 1.82901529 2.2587237 0 0 Z " fill="#1DB18E" transform="translate(46,45)"/>
<path d="M0 0 C0.66 0 1.32 0 2 0 C2.85263158 16.61052632 2.85263158 16.61052632 -2.4296875 22.62890625 C-4 23.9375 -4 23.9375 -7 26 C-7.7115625 26.8971875 -7.7115625 26.8971875 -8.4375 27.8125 C-11.05659295 29.80301064 -13.84393753 29.17864505 -17 29 C-18.1282933 23.05081712 -18.32862124 20.33373503 -15 15 C-12.76232614 12.58943587 -10.3442246 10.41992465 -7.875 8.25 C-6.59935236 7.11184731 -5.32580676 5.97133289 -4.0546875 4.828125 C-3.49249512 4.3321582 -2.93030273 3.83619141 -2.35107422 3.32519531 C-0.87499948 2.02115404 -0.87499948 2.02115404 0 0 Z " fill="#1FAF8D" transform="translate(104,35)"/>
<path d="M0 0 C43.89 0 87.78 0 133 0 C132.67 0.99 132.34 1.98 132 3 C88.44 2.67 44.88 2.34 0 2 C0 1.34 0 0.68 0 0 Z " fill="#106328" transform="translate(158,144)"/>
<path d="M0 0 C0.66 0.33 1.32 0.66 2 1 C1 4 1 4 -2.39453125 5.9453125 C-3.86424424 6.67781044 -5.33711508 7.40399457 -6.8125 8.125 C-15.41389902 12.49620278 -24.00056563 17.28925683 -30.328125 24.7421875 C-33.82825446 27.69989924 -36.63651305 27.6084707 -41 27.375 C-42.04800781 27.35373047 -42.04800781 27.35373047 -43.1171875 27.33203125 C-46.83943792 27.22668454 -50.37786459 26.86308695 -54 26 C-54 25.34 -54 24.68 -54 24 C-49.71 24 -45.42 24 -41 24 C-42.66954819 20.77595022 -42.66954819 20.77595022 -45.625 20.3125 C-46.40875 20.209375 -47.1925 20.10625 -48 20 C-46.68 19.34 -45.36 18.68 -44 18 C-41.36 19.98 -38.72 21.96 -36 24 C-36.33 18.72 -36.66 13.44 -37 8 C-36.01 7.67 -35.02 7.34 -34 7 C-33.67 11.95 -33.34 16.9 -33 22 C-31.68 19.69 -30.36 17.38 -29 15 C-28.01 15.33 -27.02 15.66 -26 16 C-23.87183587 15.84311576 -23.87183587 15.84311576 -22 15 C-21.67 14.01 -21.34 13.02 -21 12 C-19.17407227 10.66552734 -19.17407227 10.66552734 -16.81640625 9.3359375 C-15.97142578 8.85382812 -15.12644531 8.37171875 -14.25585938 7.875 C-13.36705078 7.38 -12.47824219 6.885 -11.5625 6.375 C-10.23508789 5.62089844 -10.23508789 5.62089844 -8.88085938 4.8515625 C-2.71151786 1.35575893 -2.71151786 1.35575893 0 0 Z " fill="#5D8E70" transform="translate(116,49)"/>
<path d="M0 0 C0 0.99 0 1.98 0 3 C-0.52843506 3.24121582 -1.05687012 3.48243164 -1.60131836 3.73095703 C-15.35481339 9.88668873 -15.35481339 9.88668873 -28 18 C-27.67 18.66 -27.34 19.32 -27 20 C-6.21 20.33 14.58 20.66 36 21 C36 21.33 36 21.66 36 22 C11.58 22 -12.84 22 -38 22 C-38 27.94 -38 33.88 -38 40 C-38.33 40 -38.66 40 -39 40 C-39 33.73 -39 27.46 -39 21 C-36.69 19.68 -34.38 18.36 -32 17 C-31.67 16.01 -31.34 15.02 -31 14 C-29.16088867 13.43286133 -29.16088867 13.43286133 -27 13 C-25.19456854 12.13774105 -25.19456854 12.13774105 -23.42578125 11.07421875 C-22.7620752 10.69128662 -22.09836914 10.30835449 -21.41455078 9.91381836 C-20.72087402 9.5091333 -20.02719727 9.10444824 -19.3125 8.6875 C-4.15441685 0 -4.15441685 0 0 0 Z " fill="#24513A" transform="translate(124,58)"/>
<path d="M0 0 C-1.26612428 2.53224857 -2.19617403 2.70485869 -4.76171875 3.8125 C-5.54474365 4.16094971 -6.32776855 4.50939941 -7.13452148 4.8684082 C-7.97700439 5.2418335 -8.8194873 5.61525879 -9.6875 6 C-19.37034857 10.42751423 -28.72350605 15.63205902 -36.25390625 23.29296875 C-38 25 -38 25 -40 25 C-40.268125 25.928125 -40.53625 26.85625 -40.8125 27.8125 C-41.91148371 30.76240366 -42.62418561 32.05615186 -45 34 C-46.32 33.34 -47.64 32.68 -49 32 C-49.99 32.66 -50.98 33.32 -52 34 C-50.33248852 30.05860922 -47.77289351 27.2107188 -45 24 C-45.66 23.34 -46.32 22.68 -47 22 C-44.03 22 -41.06 22 -38 22 C-37.67 21.01 -37.34 20.02 -37 19 C-29.74363824 12.7545436 -21.23638123 7.82675381 -13 3 C-12.19949219 2.52949219 -11.39898437 2.05898438 -10.57421875 1.57421875 C-6.72173823 -0.53702763 -4.23280939 -1.58730352 0 0 Z " fill="#419F82" transform="translate(121,54)"/>
<path d="M0 0 C2.9163371 1.82181058 4.68187598 4.01784648 5.83203125 7.23828125 C-0.79296875 7.48828125 -0.79296875 7.48828125 -4.16796875 5.23828125 C-4.16796875 5.56828125 -4.16796875 5.89828125 -4.16796875 6.23828125 C-16.1730849 7.84475249 -16.1730849 7.84475249 -22.16796875 5.23828125 C-22.49796875 4.24828125 -22.82796875 3.25828125 -23.16796875 2.23828125 C-16.38031677 -1.64037702 -7.46218276 -2.621848 0 0 Z " fill="#16AF8E" transform="translate(44.16796875,84.76171875)"/>
<path d="M0 0 C0.495 0.495 0.99 0.99 1.5 1.5 C5.11630158 3.66978095 7.82231616 3.20888419 12 3 C12 3.66 12 4.32 12 5 C17.445 5.495 17.445 5.495 23 6 C23 6.33 23 6.66 23 7 C22.28714844 7.03738281 21.57429688 7.07476562 20.83984375 7.11328125 C14.36113809 7.49474905 14.36113809 7.49474905 8.3125 9.625 C4.17011121 11.34448214 1.18733561 11.34283521 -3 10 C-6.78456265 8.18781524 -10.40474301 6.16111955 -14 4 C-10.91915045 3.14340865 -7.93207999 2.73058631 -4.75 2.4375 C-3.85796875 2.35371094 -2.9659375 2.26992187 -2.046875 2.18359375 C-1.03367187 2.09271484 -1.03367187 2.09271484 0 2 C0 1.34 0 0.68 0 0 Z " fill="#237A76" transform="translate(39,88)"/>
<path d="M0 0 C0.99 0.33 1.98 0.66 3 1 C5.308606 6.04473164 6.43715381 11.46271835 6 17 C5.34 16.67 4.68 16.34 4 16 C4.33 14.68 4.66 13.36 5 12 C4.34 12 3.68 12 3 12 C2.67 11.01 2.34 10.02 2 9 C1.04975021 12.69541586 1.04975021 15.30458414 2 19 C1.34 19 0.68 19 0 19 C-0.33 19.66 -0.66 20.32 -1 21 C-1.33 20.01 -1.66 19.02 -2 18 C-4.31941619 20.23351189 -6.28327199 22.3884873 -8.1875 25 C-11.34326503 28.86898747 -15.43885219 30.26360675 -20 32 C-20.928125 32.433125 -21.85625 32.86625 -22.8125 33.3125 C-25.34856825 34.10955002 -26.50052945 33.72835725 -29 33 C-28.24976563 32.74347656 -27.49953125 32.48695313 -26.7265625 32.22265625 C-16.91224297 28.55155688 -9.03746841 23.44341746 -4 14 C-1.97316204 9.43066213 -0.87155559 4.91240425 0 0 Z " fill="#236C73" transform="translate(401,190)"/>
<path d="M0 0 C0.66 0.33 1.32 0.66 2 1 C2 2.65 2 4.3 2 6 C3.65 5.67 5.3 5.34 7 5 C5.57974588 8.32016133 4.13598348 11.62956795 2.6875 14.9375 C2.28337891 15.88302734 1.87925781 16.82855469 1.46289062 17.80273438 C1.06650391 18.70185547 0.67011719 19.60097656 0.26171875 20.52734375 C-0.09962158 21.35999756 -0.46096191 22.19265137 -0.83325195 23.05053711 C-2 25 -2 25 -5 26 C-4.67 23.69 -4.34 21.38 -4 19 C-4.66 19.99 -5.32 20.98 -6 22 C-6.66 22 -7.32 22 -8 22 C-8.940804 19.4845872 -9.23039926 17.67081763 -8.34863281 15.10351562 C-7.33607251 12.94734577 -6.25320733 10.84793737 -5.125 8.75 C-4.74730469 8.0178125 -4.36960937 7.285625 -3.98046875 6.53125 C-1.21301882 1.21301882 -1.21301882 1.21301882 0 0 Z M0 6 C-1.42944945 8.35438733 -2.08661261 9.48032433 -1.625 12.25 C-1.41875 12.8275 -1.2125 13.405 -1 14 C0.66621425 12.8354799 0.66621425 12.8354799 2 11 C1.76956136 8.34533951 1.76956136 8.34533951 1 6 C0.67 6 0.34 6 0 6 Z M-3 13 C-3.33 14.65 -3.66 16.3 -4 18 C-3.01 17.67 -2.02 17.34 -1 17 C-1.66 15.68 -2.32 14.36 -3 13 Z " fill="#30AC8B" transform="translate(56,106)"/>
<path d="M0 0 C0.66 0 1.32 0 2 0 C3.38938077 1.96147874 4.7260411 3.96166576 6 6 C6.99 4.68 7.98 3.36 9 2 C9 3.32 9 4.64 9 6 C9.94875 6.226875 10.8975 6.45375 11.875 6.6875 C15 8 15 8 16.125 10.4375 C16.41375 11.283125 16.7025 12.12875 17 13 C18.30518475 14.03647024 19.63461347 15.04422943 21 16 C21 16.66 21 17.32 21 18 C17.13930704 18.47273791 13.5771733 18.78392046 10.01953125 17.015625 C5.02341411 13.08931661 2.28345828 7.85070418 0 2 C0 1.34 0 0.68 0 0 Z " fill="#1A867C" transform="translate(51,50)"/>
<path d="M0 0 C2.475 0.99 2.475 0.99 5 2 C5.33 4.31 5.66 6.62 6 9 C6.66 9 7.32 9 8 9 C8 8.34 8 7.68 8 7 C8.66 7 9.32 7 10 7 C10 7.66 10 8.32 10 9 C11.32 8.67 12.64 8.34 14 8 C14.33 8.99 14.66 9.98 15 11 C10.48281619 12.36884358 7.41225737 11.47075246 3 10 C3 11.98 3 13.96 3 16 C2.34 16 1.68 16 1 16 C1.01160156 16.83144531 1.02320313 17.66289062 1.03515625 18.51953125 C1.04417969 19.60621094 1.05320312 20.69289063 1.0625 21.8125 C1.07410156 22.89144531 1.08570313 23.97039062 1.09765625 25.08203125 C1 28 1 28 0 31 C0.99 31.33 1.98 31.66 3 32 C1.7934375 32.5878125 1.7934375 32.5878125 0.5625 33.1875 C-2.23064738 34.76948191 -2.23064738 34.76948191 -2.8125 37.6875 C-2.874375 38.450625 -2.93625 39.21375 -3 40 C-3.99 39.67 -4.98 39.34 -6 39 C-5.65066406 38.04222656 -5.30132812 37.08445312 -4.94140625 36.09765625 C-0.71937183 23.95680427 0.05982638 12.80284602 0 0 Z " fill="#22676E" transform="translate(362,239)"/>
<path d="M0 0 C0 0.66 0 1.32 0 2 C-0.66 2.391875 -1.32 2.78375 -2 3.1875 C-4.42601514 4.96483185 -4.42601514 4.96483185 -4.25 8.6875 C-4.12625 10.3271875 -4.12625 10.3271875 -4 12 C-3.01 12.33 -2.02 12.66 -1 13 C-1.804375 13.268125 -2.60875 13.53625 -3.4375 13.8125 C-4.283125 14.204375 -5.12875 14.59625 -6 15 C-6.33 15.99 -6.66 16.98 -7 18 C-7.66 18.33 -8.32 18.66 -9 19 C-9.33 19.99 -9.66 20.98 -10 22 C-10.99 22 -11.98 22 -13 22 C-13.78489483 17.86146361 -14.30871458 15.05844998 -13.125 11 C-10.37376335 7.1159012 -5.12840153 0 0 0 Z " fill="#1A7571" transform="translate(100,42)"/>
<path d="M0 0 C0 0.66 0 1.32 0 2 C3.43123928 4.43046116 5.96025815 3.81195232 9.9609375 3.16015625 C12.94652169 2.92565634 15.28196166 3.84483371 18 5 C18 5.66 18 6.32 18 7 C20.475 7.495 20.475 7.495 23 8 C23 8.66 23 9.32 23 10 C17.04296875 11.7578125 17.04296875 11.7578125 15 12 C14.01 11.34 13.02 10.68 12 10 C10.906875 9.690625 9.81375 9.38125 8.6875 9.0625 C5 8 5 8 1.9375 6.4375 C-1.09794042 4.95207171 -3.66169297 4.3974175 -7 4 C-4.83989616 0.75984424 -3.8842653 0 0 0 Z " fill="#198F83" transform="translate(16,61)"/>
<path d="M0 0 C1.32 0 2.64 0 4 0 C3.43154042 3.27741512 2.58108467 4.67570567 0.0625 6.8125 C-3.19975253 9.88103207 -3.89401527 12.65505999 -5 17 C-7.51408707 20.90116959 -9.55642615 22.64224132 -14 24 C-13.505 19.545 -13.505 19.545 -13 15 C-11.33333333 15 -9.66666667 15 -8 15 C-8.33 14.01 -8.66 13.02 -9 12 C-9 9 -9 9 -7 6.8125 C-6.34 6.214375 -5.68 5.61625 -5 5 C-4.67 5.33 -4.34 5.66 -4 6 C-3.13375 4.515 -3.13375 4.515 -2.25 3 C-1.5075 2.01 -0.765 1.02 0 0 Z " fill="#297B77" transform="translate(81,82)"/>
<path d="M0 0 C0.99 0.66 1.98 1.32 3 2 C1.68 2.33 0.36 2.66 -1 3 C-1 3.66 -1 4.32 -1 5 C-3 7 -3 7 -6 8 C-5.67 9.65 -5.34 11.3 -5 13 C-5.66 13 -6.32 13 -7 13 C-7 13.66 -7 14.32 -7 15 C-8.98 15.99 -8.98 15.99 -11 17 C-11 17.99 -11 18.98 -11 20 C-11 22.33333333 -11 24.66666667 -11 27 C-11.99 27 -12.98 27 -14 27 C-15.52800174 23.40919591 -16.40862934 21.33120487 -15.2421875 17.53125 C-14.23486269 15.30527349 -13.17523814 13.14165297 -12 11 C-13.32 10.67 -14.64 10.34 -16 10 C-14.02 10 -12.04 10 -10 10 C-9.75507812 9.40703125 -9.51015625 8.8140625 -9.2578125 8.203125 C-7.79047891 5.63301274 -6.27707775 4.45470034 -3.875 2.75 C-3.15054688 2.22921875 -2.42609375 1.7084375 -1.6796875 1.171875 C-1.12539062 0.78515625 -0.57109375 0.3984375 0 0 Z " fill="#17B58E" transform="translate(72,85)"/>
<path d="M0 0 C0.66 0 1.32 0 2 0 C2.33 4.95 2.66 9.9 3 15 C3.66 15 4.32 15 5 15 C4.01 17.475 4.01 17.475 3 20 C0.4374282 20.02710123 -2.12485365 20.04688771 -4.6875 20.0625 C-5.40873047 20.07087891 -6.12996094 20.07925781 -6.87304688 20.08789062 C-10.71555382 20.10543632 -14.26639526 19.93524221 -18 19 C-18 18.34 -18 17.68 -18 17 C-13.71 17 -9.42 17 -5 17 C-6.66954819 13.77595022 -6.66954819 13.77595022 -9.625 13.3125 C-10.800625 13.1578125 -10.800625 13.1578125 -12 13 C-10.68 12.34 -9.36 11.68 -8 11 C-5.36 12.98 -2.72 14.96 0 17 C-0.12568359 15.28490234 -0.12568359 15.28490234 -0.25390625 13.53515625 C-0.35704794 12.04428998 -0.45989747 10.55340347 -0.5625 9.0625 C-0.61857422 8.30775391 -0.67464844 7.55300781 -0.73242188 6.77539062 C-0.86176157 4.85254042 -0.93516912 2.92610452 -1 1 C-0.67 0.67 -0.34 0.34 0 0 Z " fill="#45725C" transform="translate(80,56)"/>
<path d="M0 0 C2 1.375 2 1.375 4 3 C4 3.66 4 4.32 4 5 C6.64 5 9.28 5 12 5 C11.67 3.68 11.34 2.36 11 1 C12.37562854 2.28965176 13.70766393 3.62689293 15 5 C15 5.66 15 6.32 15 7 C15.886875 7.144375 16.77375 7.28875 17.6875 7.4375 C20.47117646 7.91019978 23.23483757 8.43070185 26 9 C25.401875 9.28875 24.80375 9.5775 24.1875 9.875 C21.80672208 11.04742026 21.80672208 11.04742026 19 13 C16.03923709 12.64111965 15.15341979 12.15341979 13 10 C13 10.66 13 11.32 13 12 C10.69 12.33 8.38 12.66 6 13 C6.66 11.02 7.32 9.04 8 7 C7.236875 6.9175 6.47375 6.835 5.6875 6.75 C2.45284809 5.84730645 1.64900735 4.86406539 0 2 C0 1.34 0 0.68 0 0 Z " fill="#14887C" transform="translate(31,62)"/>
<path d="M0 0 C0 0.99 0 1.98 0 3 C-0.52319824 3.235979 -1.04639648 3.47195801 -1.58544922 3.71508789 C-14.98373002 9.71991881 -14.98373002 9.71991881 -27.1875 17.78515625 C-29 19 -29 19 -32 19 C-31.67 17.35 -31.34 15.7 -31 14 C-30.41371826 13.87471924 -29.82743652 13.74943848 -29.22338867 13.62036133 C-27.02438312 13.00680328 -25.38937728 12.22287834 -23.42578125 11.07421875 C-22.43022217 10.49982056 -22.43022217 10.49982056 -21.41455078 9.91381836 C-20.72087402 9.5091333 -20.02719727 9.10444824 -19.3125 8.6875 C-4.15441685 0 -4.15441685 0 0 0 Z " fill="#938A62" transform="translate(124,58)"/>
<path d="M0 0 C0.66 0.33 1.32 0.66 2 1 C1.175 1.639375 0.35 2.27875 -0.5 2.9375 C-3.83579155 7.02384465 -3.4971834 9.92872936 -3 15 C-1.68 15.66 -0.36 16.32 1 17 C-0.65 18.65 -2.3 20.3 -4 22 C-7.79379058 20.50958227 -9.68343758 18.30937488 -12 15 C-12 13 -12 13 -10 11 C-10 10.34 -10 9.68 -10 9 C-8 9 -8 9 -6.375 10.5 C-5.92125 10.995 -5.4675 11.49 -5 12 C-5.103125 10.948125 -5.20625 9.89625 -5.3125 8.8125 C-5 5 -5 5 -2.5 2.0625 C-1.675 1.381875 -0.85 0.70125 0 0 Z " fill="#0F7B72" transform="translate(85,34)"/>
<path d="M0 0 C-1.29196968 2.58393937 -2.39661161 2.8168777 -5.0078125 3.98828125 C-5.83023438 4.36533203 -6.65265625 4.74238281 -7.5 5.13085938 C-9.22612544 5.90787269 -10.95267625 6.68394187 -12.6796875 7.45898438 C-16.69017781 9.29920159 -20.38037631 11.14085399 -23.93359375 13.7734375 C-27.07017786 16.05095717 -28.24261418 16.56930088 -32 16 C-28.67454075 12.30504528 -24.99568478 9.97796472 -20.75 7.5 C-20.08049316 7.10635254 -19.41098633 6.71270508 -18.72119141 6.30712891 C-16.81904907 5.19596731 -14.91063497 4.09647397 -13 3 C-12.14664063 2.50242188 -11.29328125 2.00484375 -10.4140625 1.4921875 C-6.61546394 -0.589037 -4.1703232 -1.5638712 0 0 Z " fill="#40A38B" transform="translate(121,54)"/>
<path d="M0 0 C1.125 4.75 1.125 4.75 0 7 C0.66 7.33 1.32 7.66 2 8 C2.33 6.35 2.66 4.7 3 3 C3.66 3.33 4.32 3.66 5 4 C4.29379845 5.65581725 3.55912762 7.29951386 2.8125 8.9375 C2.40644531 9.85402344 2.00039062 10.77054688 1.58203125 11.71484375 C0 14 0 14 -2.67578125 14.81640625 C-3.44277344 14.87699219 -4.20976563 14.93757813 -5 15 C-6.72393401 11.55213198 -6.50222927 7.77006772 -6 4 C-3.07317073 0 -3.07317073 0 0 0 Z " fill="#19A28E" transform="translate(87,36)"/>
<path d="M0 0 C0.33 0 0.66 0 1 0 C0.85704109 1.39613065 0.71048442 2.79189308 0.5625 4.1875 C0.47871094 5.01121094 0.39492187 5.83492187 0.30859375 6.68359375 C0 9 0 9 -0.875 11.75 C-0.91625 12.4925 -0.9575 13.235 -1 14 C1.37505218 16.70848923 1.37505218 16.70848923 4 19 C4 19.66 4 20.32 4 21 C1.11562221 19.70700306 -0.87219421 18.34058637 -3 16 C-3.80590016 19.58177848 -4.02659447 22.58132777 -3.5 26.1875 C-3 30 -3 30 -4 33 C-6.86719933 30.13280067 -6.91925364 27.9976082 -7.2421875 24.0078125 C-7.21411579 18.87536781 -5.27229567 14.31485269 -3.5 9.5625 C-3.16613281 8.64017578 -2.83226563 7.71785156 -2.48828125 6.76757812 C-1.66871045 4.50790435 -0.83913509 2.25246559 0 0 Z " fill="#1A7573" transform="translate(77,14)"/>
<path d="M0 0 C5.41874211 0.3570489 10.66071477 -0.09118549 16 -1 C5.98004347 5.67997102 -7.50394763 4.32776496 -19 4 C-19 3.34 -19 2.68 -19 2 C-16.39740876 1.46989799 -13.793443 0.95062205 -11.1875 0.4375 C-10.44951172 0.28603516 -9.71152344 0.13457031 -8.95117188 -0.02148438 C-3.33984375 -1.11328125 -3.33984375 -1.11328125 0 0 Z " fill="#24696E" transform="translate(323,310)"/>
<path d="M0 0 C1.32 1.32 2.64 2.64 4 4 C3.65195313 4.52078125 3.30390625 5.0415625 2.9453125 5.578125 C1.64035624 8.92140137 2.24410378 11.245021 2.875 14.75 C3.07867187 15.92046875 3.28234375 17.0909375 3.4921875 18.296875 C3.65976563 19.18890625 3.82734375 20.0809375 4 21 C5.32 20.01 6.64 19.02 8 18 C7.375 20.4375 7.375 20.4375 6 23 C2.875 23.8125 2.875 23.8125 0 24 C0 23.34 0 22.68 0 22 C-0.33 21.01 -0.66 20.02 -1 19 C-1.35193715 12.59267373 -0.95616553 6.33459667 0 0 Z " fill="#149E8A" transform="translate(79,2)"/>
<path d="M0 0 C0.66 0 1.32 0 2 0 C2 3.63 2 7.26 2 11 C1.67 9.68 1.34 8.36 1 7 C0.34 7 -0.32 7 -1 7 C-0.67 7.99 -0.34 8.98 0 10 C-0.99 10.66 -1.98 11.32 -3 12 C-2.67 12.66 -2.34 13.32 -2 14 C-2.61875 14.28875 -3.2375 14.5775 -3.875 14.875 C-6.13325765 15.93720042 -6.13325765 15.93720042 -8 18 C-9 17 -9 17 -9.25 14.625 C-9 12 -9 12 -7.625 10.1875 C-6 9 -6 9 -4 9 C-4.33 8.01 -4.66 7.02 -5 6 C-2.6875 2.8125 -2.6875 2.8125 0 0 Z " fill="#229F85" transform="translate(104,35)"/>
<path d="M0 0 C2.9163371 1.82181058 4.68187598 4.01784648 5.83203125 7.23828125 C-0.53160511 7.72779174 -0.53160511 7.72779174 -3.60546875 5.36328125 C-5.16796875 3.23828125 -5.16796875 3.23828125 -5.16796875 1.23828125 C-11.36671039 0.90751836 -15.69016369 0.95159821 -21.16796875 4.23828125 C-21.82796875 4.23828125 -22.48796875 4.23828125 -23.16796875 4.23828125 C-23.16796875 3.57828125 -23.16796875 2.91828125 -23.16796875 2.23828125 C-16.38031677 -1.64037702 -7.46218276 -2.621848 0 0 Z " fill="#2CAC8F" transform="translate(44.16796875,84.76171875)"/>
<path d="M0 0 C2.475 0.99 2.475 0.99 5 2 C5.33 4.31 5.66 6.62 6 9 C6.66 9 7.32 9 8 9 C8 8.34 8 7.68 8 7 C8.66 7 9.32 7 10 7 C10 7.66 10 8.32 10 9 C11.32 8.67 12.64 8.34 14 8 C14.33 8.99 14.66 9.98 15 11 C10.48480419 12.36824115 7.37322734 11.65027447 3 10 C2.34 9.01 1.68 8.02 1 7 C0.67 6.67 0.34 6.34 0 6 C-0.04080783 4.00041636 -0.04254356 1.99954746 0 0 Z " fill="#084E59" transform="translate(362,239)"/>
<path d="M0 0 C3.58953767 3.58953767 4.26798665 6.75181307 4.625 11.75 C4.69976562 12.73484375 4.77453125 13.7196875 4.8515625 14.734375 C4.92503906 15.85585938 4.92503906 15.85585938 5 17 C3 16 3 16 2 15 C2 15.99 2 16.98 2 18 C1.01 17.67 0.02 17.34 -1 17 C-0.979375 15.9275 -0.95875 14.855 -0.9375 13.75 C-0.82470581 10.23908696 -0.82470581 10.23908696 -1.625 7.9375 C-2.19805144 4.97673424 -1.06350753 2.75260772 0 0 Z " fill="#1A7E80" transform="translate(74,29)"/>
<path d="M0 0 C0.66 0.33 1.32 0.66 2 1 C0.57930198 4.15369122 -0.86429577 7.29635626 -2.3125 10.4375 C-2.71662109 11.33533203 -3.12074219 12.23316406 -3.53710938 13.15820312 C-3.93349609 14.01220703 -4.32988281 14.86621094 -4.73828125 15.74609375 C-5.09962158 16.53685303 -5.46096191 17.3276123 -5.83325195 18.14233398 C-7 20 -7 20 -10 21 C-9.4140625 14.84765625 -9.4140625 14.84765625 -9 13 C-8.34 12.67 -7.68 12.34 -7 12 C-6.63451555 10.67511887 -6.3062434 9.33981486 -6 8 C-5.33333333 6.66666667 -4.66666667 5.33333333 -4 4 C-4 3.34 -4 2.68 -4 2 C-2.125 0.9375 -2.125 0.9375 0 0 Z " fill="#96AB64" transform="translate(61,111)"/>
<path d="M0 0 C0 0.66 0 1.32 0 2 C3.41688559 4.42029396 6.02884795 3.86931136 10.02734375 3.2265625 C12.51266846 2.94111927 14.60366528 3.32603086 17 4 C16 6 16 6 13.625 7.3125 C9.04378204 8.18135168 6.03044257 7.15936906 1.63671875 5.8046875 C-1.21877503 4.9332331 -4.04295889 4.39960015 -7 4 C-4.83989616 0.75984424 -3.8842653 0 0 0 Z " fill="#169C86" transform="translate(16,61)"/>
<path d="M0 0 C0.66 0 1.32 0 2 0 C2.05447047 1.41623216 2.09300508 2.83308191 2.125 4.25 C2.14820312 5.03890625 2.17140625 5.8278125 2.1953125 6.640625 C1.9828378 9.20731941 1.28654105 10.7916067 0 13 C-2.31 12.67 -4.62 12.34 -7 12 C-5.63016497 8.83884224 -5.0109362 8.0072908 -2 6 C-2.33 5.34 -2.66 4.68 -3 4 C-2.01 3.34 -1.02 2.68 0 2 C0 1.34 0 0.68 0 0 Z " fill="#16B394" transform="translate(103,42)"/>
<path d="M0 0 C0.33 0.66 0.66 1.32 1 2 C-4.1468192 5.16727335 -8.158256 5.35050464 -14 5 C-14.33 4.34 -14.66 3.68 -15 3 C-14.195625 2.8453125 -14.195625 2.8453125 -13.375 2.6875 C-10.82315002 2.04389998 -10.82315002 2.04389998 -8.0625 0.375 C-4.71021178 -1.13010899 -3.40046757 -1.26303081 0 0 Z " fill="#18737E" transform="translate(337,306)"/>
<path d="M0 0 C0.33 0 0.66 0 1 0 C1 15.51 1 31.02 1 47 C0.67 47 0.34 47 0 47 C-0.16972257 42.23545258 -0.33001759 37.47070709 -0.48217773 32.70556641 C-0.53502588 31.08992313 -0.5902977 29.474357 -0.64819336 27.85888672 C-0.98218067 18.4898165 -1.10216858 9.33682745 0 0 Z " fill="#054424" transform="translate(83,87)"/>
<path d="M0 0 C2 1.1875 2 1.1875 4 3 C4.25 5.6875 4.25 5.6875 4 8 C2.58318366 7.68817931 1.16655349 7.37551263 -0.25 7.0625 C-1.03890625 6.88847656 -1.8278125 6.71445313 -2.640625 6.53515625 C-4.76878703 6.052444 -6.88532842 5.53836822 -9 5 C-8.67 4.01 -8.34 3.02 -8 2 C-5.36 2.33 -2.72 2.66 0 3 C0 2.01 0 1.02 0 0 Z " fill="#1D9A85" transform="translate(55,64)"/>
<path d="M0 0 C0.66 0.33 1.32 0.66 2 1 C2 1.99 2 2.98 2 4 C3.65 4.33 5.3 4.66 7 5 C6.67 5.66 6.34 6.32 6 7 C5.34 7.144375 4.68 7.28875 4 7.4375 C3.34 7.623125 2.68 7.80875 2 8 C1.67 8.99 1.34 9.98 1 11 C0.34 11 -0.32 11 -1 11 C-2.38550197 8.22899606 -2.1877467 6.0665294 -2 3 C-1.34 2.01 -0.68 1.02 0 0 Z " fill="#13877E" transform="translate(92,49)"/>
<path d="M0 0 C1.65 0 3.3 0 5 0 C5 1.32 5 2.64 5 4 C5.598125 4.144375 6.19625 4.28875 6.8125 4.4375 C8.56150404 4.8872439 10.28677023 5.42892341 12 6 C12.33 5.34 12.66 4.68 13 4 C13.33 4.99 13.66 5.98 14 7 C12.5625 9.6875 12.5625 9.6875 11 12 C7 7.25 7 7.25 7 5 C6.401875 4.9175 5.80375 4.835 5.1875 4.75 C2.4033704 3.79544128 1.56688858 2.42867729 0 0 Z " fill="#229D85" transform="translate(46,45)"/>
<path d="M0 0 C0.53625 0.474375 1.0725 0.94875 1.625 1.4375 C4.42842836 3.28186076 6.69620258 3.62456847 10 4 C10 4.66 10 5.32 10 6 C6.06094403 7.14889133 2.06434042 7.52582695 -2 8 C-2.33 7.34 -2.66 6.68 -3 6 C-2.34 6 -1.68 6 -1 6 C-0.67 4.02 -0.34 2.04 0 0 Z " fill="#198480" transform="translate(39,88)"/>
<path d="M0 0 C0 0.66 0 1.32 0 2 C-8.19256018 2.63019694 -8.19256018 2.63019694 -11.5625 0 C-12.2740625 -0.99 -12.2740625 -0.99 -13 -2 C-4.2940874 -3.62313625 -4.2940874 -3.62313625 0 0 Z " fill="#1B7773" transform="translate(72,66)"/>
<path d="M0 0 C2.31 0 4.62 0 7 0 C5.49650623 3.66786393 3.36271208 5.68910393 0.375 8.25 C-0.44226563 8.95640625 -1.25953125 9.6628125 -2.1015625 10.390625 C-2.72804688 10.92171875 -3.35453125 11.4528125 -4 12 C-4 8.41087588 -3.33563446 7.89142971 -1 5.3125 C-0.443125 4.68988281 0.11375 4.06726563 0.6875 3.42578125 C1.120625 2.95527344 1.55375 2.48476562 2 2 C1.34 1.34 0.68 0.68 0 0 Z " fill="#699A7C" transform="translate(74,76)"/>
<path d="M0 0 C1.21386936 3.64160808 0.6674695 4.33165469 -0.9375 7.6875 C-1.31777344 8.49574219 -1.69804688 9.30398437 -2.08984375 10.13671875 C-2.39019531 10.75160156 -2.69054688 11.36648437 -3 12 C-3.66 12 -4.32 12 -5 12 C-5.74837142 9.30586287 -6.18449471 7.57025639 -5.3125 4.875 C-3.80468487 2.72097839 -2.17767392 1.45178261 0 0 Z " fill="#3DA77D" transform="translate(53,116)"/>
<path d="M0 0 C0.99 0.33 1.98 0.66 3 1 C2.814375 1.61875 2.62875 2.2375 2.4375 2.875 C1.76313824 5.04160178 1.76313824 5.04160178 3 7 C3.66 6.67 4.32 6.34 5 6 C4.67 6.99 4.34 7.98 4 9 C1.4375 10.1875 1.4375 10.1875 -1 11 C-2.1875 8.875 -2.1875 8.875 -3 6 C-1.625 2.6875 -1.625 2.6875 0 0 Z " fill="#16A88B" transform="translate(84,25)"/>
<path d="M0 0 C2.88437779 1.29299694 4.87219421 2.65941363 7 5 C1.20858017 6.01603857 -2.4584498 5.96263236 -8 4 C-8 3.67 -8 3.34 -8 3 C-3.545 2.505 -3.545 2.505 1 2 C0.67 1.34 0.34 0.68 0 0 Z " fill="#139882" transform="translate(30,86)"/>
<path d="M0 0 C-1.33123403 2.66246807 -2.6764378 2.94601652 -5.375 4.125 C-6.16648437 4.47820313 -6.95796875 4.83140625 -7.7734375 5.1953125 C-10 6 -10 6 -13 6 C-13 5.01 -13 4.02 -13 3 C-4.738041 -1.77676538 -4.738041 -1.77676538 0 0 Z " fill="#40A98C" transform="translate(121,54)"/>
<path d="M0 0 C-0.60698743 4.12751449 -2.03810791 7.3321148 -4 11 C-4.144375 10.38125 -4.28875 9.7625 -4.4375 9.125 C-4.93152225 6.96741678 -4.93152225 6.96741678 -6 5 C-6.99 5.33 -7.98 5.66 -9 6 C-9 5.34 -9 4.68 -9 4 C-2.25 0 -2.25 0 0 0 Z " fill="#115F66" transform="translate(402,248)"/>
<path d="M0 0 C0.33 0 0.66 0 1 0 C1 7.26 1 14.52 1 22 C0.67 22 0.34 22 0 22 C-0.1953125 19.98177083 -0.390625 17.96354167 -0.5859375 15.9453125 C-0.86374749 13.77331755 -0.86374749 13.77331755 -3 12 C-2.67 11.01 -2.34 10.02 -2 9 C-1.63109697 7.44091346 -1.27784121 5.87806959 -0.9375 4.3125 C-0.76089844 3.50425781 -0.58429688 2.69601563 -0.40234375 1.86328125 C-0.26957031 1.24839844 -0.13679688 0.63351563 0 0 Z " fill="#1C6571" transform="translate(407,207)"/>
<path d="M0 0 C0 0.33 0 0.66 0 1 C-4.0597302 2.51059728 -6.54610667 3 -11 3 C-11 8.94 -11 14.88 -11 21 C-11.33 21 -11.66 21 -12 21 C-12 14.73 -12 8.46 -12 2 C-5.25 -1.375 -5.25 -1.375 0 0 Z " fill="#395942" transform="translate(97,77)"/>
<path d="M0 0 C1.5625 1.25 1.5625 1.25 3 3 C3 5 3 5 2 7 C-0.375 8.8125 -0.375 8.8125 -3 10 C-3.99 9.67 -4.98 9.34 -6 9 C-5.34 8.34 -4.68 7.68 -4 7 C-4.33 6.01 -4.66 5.02 -5 4 C-3.02 4 -1.04 4 1 4 C0.67 2.68 0.34 1.36 0 0 Z " fill="#297A7B" transform="translate(59,69)"/>
<path d="M0 0 C0.66 0 1.32 0 2 0 C3.03565785 1.30582947 4.03126968 2.64377755 5 4 C5.98165594 5.01801357 6.97591432 6.0246803 8 7 C8 5.35 8 3.7 8 2 C9.65 2.33 11.3 2.66 13 3 C11.35 4.98 9.7 6.96 8 9 C4.20620942 7.50958227 2.31656242 5.30937488 0 2 C0 1.34 0 0.68 0 0 Z " fill="#1F7B73" transform="translate(73,47)"/>
<path d="M0 0 C2.92879371 0.62759865 5.36095629 1.58622659 8 3 C8.33 2.34 8.66 1.68 9 1 C10.65 1 12.3 1 14 1 C13.505 1.61875 13.01 2.2375 12.5 2.875 C10.80777227 4.83880904 10.80777227 4.83880904 11 7 C6.89188572 5.55007731 3.53144334 3.54592427 0 1 C0 0.67 0 0.34 0 0 Z " fill="#1B7572" transform="translate(25,70)"/>
<path d="M0 0 C1.62723299 0.45034123 3.25173664 0.91055354 4.875 1.375 C5.77992187 1.63023438 6.68484375 1.88546875 7.6171875 2.1484375 C10 3 10 3 12 5 C10.35 4.67 8.7 4.34 7 4 C7 4.66 7 5.32 7 6 C4.61435923 5.42415568 2.33317216 4.77772405 0 4 C0 2.68 0 1.36 0 0 Z " fill="#24AF93" transform="translate(51,45)"/>
<path d="M0 0 C0 3.80345877 -1.13786331 4.77701015 -3.5 7.6875 C-4.47453125 8.89986328 -4.47453125 8.89986328 -5.46875 10.13671875 C-5.9740625 10.75160156 -6.479375 11.36648438 -7 12 C-7.33 11.01 -7.66 10.02 -8 9 C-7.34 9 -6.68 9 -6 9 C-6.66 8.01 -7.32 7.02 -8 6 C-7.67 5.01 -7.34 4.02 -7 3 C-6.34 3.66 -5.68 4.32 -5 5 C-3.35 3.35 -1.7 1.7 0 0 Z " fill="#20676F" transform="translate(390,269)"/>
<path d="M0 0 C0.66 0.33 1.32 0.66 2 1 C0.65289578 5.04131267 -1.38428334 5.90288434 -5 8 C-5.99 8 -6.98 8 -8 8 C-7.67 6.35 -7.34 4.7 -7 3 C-6.401875 2.87625 -5.80375 2.7525 -5.1875 2.625 C-2.73768652 2.04524015 -2.73768652 2.04524015 0 0 Z " fill="#698350" transform="translate(100,69)"/>
<path d="M0 0 C0.66 0 1.32 0 2 0 C2 5.28 2 10.56 2 16 C1.34 16 0.68 16 0 16 C-0.19389096 13.5211787 -0.38040123 11.04219069 -0.5625 8.5625 C-0.61857422 7.85544922 -0.67464844 7.14839844 -0.73242188 6.41992188 C-0.86190993 4.61572163 -0.93521608 2.80768048 -1 1 C-0.67 0.67 -0.34 0.34 0 0 Z " fill="#4A7870" transform="translate(80,56)"/>
<path d="M0 0 C-0.17625835 2.37948772 -0.69719773 3.70225849 -2.40234375 5.37890625 C-3.90649092 6.62115486 -5.45129851 7.81376056 -7 9 C-7.24862931 6.01644824 -7.18991433 4.35134151 -5.75 1.6875 C-4 0 -4 0 0 0 Z " fill="#5D8A60" transform="translate(85,82)"/>
<path d="M0 0 C0.66 0.66 1.32 1.32 2 2 C1.7578125 4.1640625 1.7578125 4.1640625 1.125 6.625 C0.92132813 7.44226563 0.71765625 8.25953125 0.5078125 9.1015625 C0.34023437 9.72804688 0.17265625 10.35453125 0 11 C-2 10 -2 10 -3 7 C-3 3.48283697 -2.17554415 2.62878252 0 0 Z " fill="#137973" transform="translate(75,87)"/>
<path d="M0 0 C0.99 0.66 1.98 1.32 3 2 C1.68 2.33 0.36 2.66 -1 3 C-1 3.66 -1 4.32 -1 5 C-3.20161997 7.20161997 -4.09058096 7.29468629 -7 8 C-7.99 8.66 -8.98 9.32 -10 10 C-8.5741914 6.54804233 -6.90253666 4.8985744 -3.875 2.75 C-3.15054688 2.22921875 -2.42609375 1.7084375 -1.6796875 1.171875 C-1.12539062 0.78515625 -0.57109375 0.3984375 0 0 Z " fill="#2AAB8F" transform="translate(72,85)"/>
<path d="M0 0 C1.32 1.32 2.64 2.64 4 4 C3.54917531 5.46067199 3.08906463 6.91848032 2.625 8.375 C2.36976562 9.18710938 2.11453125 9.99921875 1.8515625 10.8359375 C1 13 1 13 -1 15 C-0.67 10.05 -0.34 5.1 0 0 Z " fill="#2B9681" transform="translate(79,2)"/>
<path d="M0 0 C0.33 0.99 0.66 1.98 1 3 C2.97536745 2.65213292 2.97536745 2.65213292 5 2 C5.33 1.34 5.66 0.68 6 0 C6.33 1.65 6.66 3.3 7 5 C3.94736336 5.98120464 2.05263664 5.98120464 -1 5 C-1.33 3.68 -1.66 2.36 -2 1 C-1.34 0.67 -0.68 0.34 0 0 Z " fill="#19A78B" transform="translate(36,62)"/>
<path d="M0 0 C0 0.99 0 1.98 0 3 C-6.4 6.07692308 -6.4 6.07692308 -9.4375 5.6875 C-9.953125 5.460625 -10.46875 5.23375 -11 5 C-7.72709962 2.33319229 -4.35126896 0 0 0 Z " fill="#958D57" transform="translate(124,58)"/>
<path d="M0 0 C0.66 0.33 1.32 0.66 2 1 C1 4 1 4 -0.75 5.1875 C-3.29960574 6.10819096 -5.30923081 6.14948718 -8 6 C-8 5.34 -8 4.68 -8 4 C-6.71349294 3.30289269 -5.42059335 2.61757124 -4.125 1.9375 C-3.40570313 1.55464844 -2.68640625 1.17179687 -1.9453125 0.77734375 C-1.30335937 0.52082031 -0.66140625 0.26429687 0 0 Z " fill="#748B5F" transform="translate(116,49)"/>
<path d="M0 0 C0.66 0.33 1.32 0.66 2 1 C0.21326795 2.5058745 -1.57953508 4.0045485 -3.375 5.5 C-4.87160156 6.75296875 -4.87160156 6.75296875 -6.3984375 8.03125 C-9 10 -9 10 -11 10 C-10.67 9.01 -10.34 8.02 -10 7 C-9.34 7 -8.68 7 -8 7 C-7.67 6.01 -7.34 5.02 -7 4 C-4.78406817 2.28945613 -2.53809348 1.24678276 0 0 Z " fill="#22686D" transform="translate(374,287)"/>
<path d="M0 0 C0.99 0.33 1.98 0.66 3 1 C3 2.32 3 3.64 3 5 C3.33 5.99 3.66 6.98 4 8 C5 11 5 11 5 15 C4.34 15 3.68 15 3 15 C2.49564306 13.0636296 1.99666126 11.12585854 1.5 9.1875 C1.2215625 8.10855469 0.943125 7.02960938 0.65625 5.91796875 C0 3 0 3 0 0 Z " fill="#266D72" transform="translate(359,224)"/>
<path d="M0 0 C2.62187494 1.04874998 3.79371361 1.64931313 5.25 4.125 C5.4975 4.74375 5.745 5.3625 6 6 C3.69 6 1.38 6 -1 6 C-1.33 5.34 -1.66 4.68 -2 4 C-1.34 3.67 -0.68 3.34 0 3 C0 2.01 0 1.02 0 0 Z " fill="#249D87" transform="translate(44,86)"/>
<path d="M0 0 C1.6396875 0.2475 1.6396875 0.2475 3.3125 0.5 C6.7793899 1.22133105 6.7793899 1.22133105 9.1875 0.375 C11 0 11 0 13.25 1.4375 C13.8275 1.953125 14.405 2.46875 15 3 C13 4 13 4 10.6875 3.5 C8.01044025 2.81163525 8.01044025 2.81163525 5.4375 3.625 C3 4 3 4 0.6875 2.5625 C0.130625 2.046875 -0.42625 1.53125 -1 1 C-0.67 0.67 -0.34 0.34 0 0 Z " fill="#14A98D" transform="translate(17,62)"/>
<path d="M0 0 C2.35716404 2.15454249 3.78966144 4.19719874 5.1875 7.0625 C5.53167969 7.75472656 5.87585938 8.44695313 6.23046875 9.16015625 C7 11 7 11 7 13 C6.01 13 5.02 13 4 13 C4 11.35 4 9.7 4 8 C3.34 8 2.68 8 2 8 C2 6.68 2 5.36 2 4 C1.01 3.67 0.02 3.34 -1 3 C-0.67 2.01 -0.34 1.02 0 0 Z " fill="#2AA98A" transform="translate(83,8)"/>
<path d="M0 0 C2.29013653 3.4352048 2.17842973 4.985331 2 9 C-2.8 6.53846154 -2.8 6.53846154 -3.8125 3.8125 C-3.874375 3.214375 -3.93625 2.61625 -4 2 C-3.01 2.33 -2.02 2.66 -1 3 C-0.67 2.01 -0.34 1.02 0 0 Z " fill="#239889" transform="translate(70,57)"/>
<path d="M0 0 C0.66 0 1.32 0 2 0 C2.05399736 1.45792884 2.09279177 2.91642712 2.125 4.375 C2.14820312 5.18710937 2.17140625 5.99921875 2.1953125 6.8359375 C2 9 2 9 0 11 C-0.99 8.69 -1.98 6.38 -3 4 C-2.01 3.34 -1.02 2.68 0 2 C0 1.34 0 0.68 0 0 Z " fill="#22AF8E" transform="translate(103,42)"/>
<path d="M0 0 C0.66 0.33 1.32 0.66 2 1 C0.35 4.3 -1.3 7.6 -3 11 C-5 9 -5 9 -5.125 6.375 C-5.08375 5.59125 -5.0425 4.8075 -5 4 C-3.68 4.33 -2.36 4.66 -1 5 C-0.67 3.35 -0.34 1.7 0 0 Z " fill="#26A285" transform="translate(90,39)"/>
<path d="M0 0 C2.00720923 0.28674418 4.0085944 0.61866701 6 1 C5.01 1.495 5.01 1.495 4 2 C4 2.66 4 3.32 4 4 C3.34 4 2.68 4 2 4 C1.67 5.65 1.34 7.3 1 9 C0.34 8.67 -0.32 8.34 -1 8 C-1.04241723 5.66705225 -1.04092937 3.33297433 -1 1 C-0.67 0.67 -0.34 0.34 0 0 Z " fill="#14A186" transform="translate(61,101)"/>
<path d="M0 0 C0.66 0.33 1.32 0.66 2 1 C2.484375 2.99609375 2.484375 2.99609375 2.75 5.4375 C2.84796875 6.24058594 2.9459375 7.04367188 3.046875 7.87109375 C3 10 3 10 1 12 C1 11.34 1 10.68 1 10 C0.34 9.67 -0.32 9.34 -1 9 C-0.34 9 0.32 9 1 9 C1 8.01 1 7.02 1 6 C0.34 5.67 -0.32 5.34 -1 5 C-0.67 3.35 -0.34 1.7 0 0 Z " fill="#1FAF8E" transform="translate(89,21)"/>
<path d="M0 0 C-3.20336822 2.83374881 -5.78087253 3.5205537 -10 4 C-9.67 2.68 -9.34 1.36 -9 0 C-3.375 -1.125 -3.375 -1.125 0 0 Z " fill="#6DC6B3" transform="translate(379,204)"/>
<path d="M0 0 C4.29 0.33 8.58 0.66 13 1 C12.34 1.66 11.68 2.32 11 3 C8.3984375 2.9765625 8.3984375 2.9765625 5.375 2.625 C4.37210937 2.51414062 3.36921875 2.40328125 2.3359375 2.2890625 C1.17964844 2.14597656 1.17964844 2.14597656 0 2 C0 1.34 0 0.68 0 0 Z " fill="#4F736B" transform="translate(62,73)"/>
<path d="M0 0 C3.96 0 7.92 0 12 0 C10 3 10 3 7.6875 3.9375 C3.98244016 4.02366418 2.62565161 2.47561438 0 0 Z " fill="#21897E" transform="translate(25,91)"/>
<path d="M0 0 C1.65 0 3.3 0 5 0 C4.979375 1.11375 4.95875 2.2275 4.9375 3.375 C4.73619282 6.83215921 4.73619282 6.83215921 6 9 C4.68 9 3.36 9 2 9 C2.875 3.25 2.875 3.25 4 1 C2.68 0.67 1.36 0.34 0 0 Z " fill="#2AAB8C" transform="translate(56,95)"/>
<path d="M0 0 C0.66 0.33 1.32 0.66 2 1 C2 2.32 2 3.64 2 5 C0.35 5.33 -1.3 5.66 -3 6 C-3.66 4.68 -4.32 3.36 -5 2 C-2.625 0.9375 -2.625 0.9375 0 0 Z " fill="#168681" transform="translate(72,93)"/>
<path d="M0 0 C2 1.375 2 1.375 4 3 C4 3.66 4 4.32 4 5 C6.31 5.33 8.62 5.66 11 6 C10.67 6.99 10.34 7.98 10 9 C9.34 9 8.68 9 8 9 C8 8.34 8 7.68 8 7 C7.236875 6.9175 6.47375 6.835 5.6875 6.75 C2.45284809 5.84730645 1.64900735 4.86406539 0 2 C0 1.34 0 0.68 0 0 Z " fill="#0A8773" transform="translate(31,62)"/>
<path d="M0 0 C0.66 0 1.32 0 2 0 C2 0.66 2 1.32 2 2 C3.32 2.33 4.64 2.66 6 3 C5.38125 3.28875 4.7625 3.5775 4.125 3.875 C1.86674235 4.93720042 1.86674235 4.93720042 0 7 C-1 6 -1 6 -1.125 3.5 C-1 1 -1 1 0 0 Z " fill="#15917E" transform="translate(96,46)"/>
<path d="M0 0 C-1.26239712 0.86658615 -2.53527501 1.71792059 -3.8125 2.5625 C-4.87404297 3.27599609 -4.87404297 3.27599609 -5.95703125 4.00390625 C-8 5 -8 5 -11 4 C-4.02040816 -2.01020408 -4.02040816 -2.01020408 0 0 Z " fill="#216E72" transform="translate(363,298)"/>
<path d="M0 0 C-1.2065625 0.5878125 -1.2065625 0.5878125 -2.4375 1.1875 C-5.23064738 2.76948191 -5.23064738 2.76948191 -5.8125 5.6875 C-5.9053125 6.8321875 -5.9053125 6.8321875 -6 8 C-6.99 7.67 -7.98 7.34 -9 7 C-7.53913043 1.4 -7.53913043 1.4 -5.0625 -0.4375 C-3 -1 -3 -1 0 0 Z " fill="#14646A" transform="translate(365,271)"/>
<path d="M0 0 C0.66 0.33 1.32 0.66 2 1 C0.68 3.31 -0.64 5.62 -2 8 C-2.66 7.34 -3.32 6.68 -4 6 C-4 4.68 -4 3.36 -4 2 C-2.125 0.9375 -2.125 0.9375 0 0 Z " fill="#6F9571" transform="translate(61,111)"/>
<path d="M0 0 C1.65 1.65 3.3 3.3 5 5 C3.71034824 6.37562854 2.37310707 7.70766393 1 9 C0.34 9 -0.32 9 -1 9 C-0.67 6.03 -0.34 3.06 0 0 Z " fill="#127068" transform="translate(68,97)"/>
<path d="M0 0 C0.66 0.33 1.32 0.66 2 1 C1.34 3.31 0.68 5.62 0 8 C-1.32 8 -2.64 8 -4 8 C-3.67 6.68 -3.34 5.36 -3 4 C-2.34 4 -1.68 4 -1 4 C-0.67 2.68 -0.34 1.36 0 0 Z " fill="#1F9883" transform="translate(94,56)"/>
<path d="M0 0 C0.33 1.65 0.66 3.3 1 5 C-1.64 4.67 -4.28 4.34 -7 4 C-4.83989616 0.75984424 -3.8842653 0 0 0 Z " fill="#379784" transform="translate(16,61)"/>
<path d="M0 0 C0.66 0.66 1.32 1.32 2 2 C0.68 4.31 -0.64 6.62 -2 9 C-2.99 8.34 -3.98 7.68 -5 7 C-4.34 7 -3.68 7 -3 7 C-2.87625 6.030625 -2.7525 5.06125 -2.625 4.0625 C-2.41875 3.051875 -2.2125 2.04125 -2 1 C-1.34 0.67 -0.68 0.34 0 0 Z " fill="#1B6C6F" transform="translate(395,259)"/>
<path d="M0 0 C0.33 0 0.66 0 1 0 C0.85892253 1.45880109 0.71197585 2.91703551 0.5625 4.375 C0.48128906 5.18710937 0.40007812 5.99921875 0.31640625 6.8359375 C0 9 0 9 -1 11 C-1.66 11 -2.32 11 -3 11 C-2.32829194 7.1936543 -1.27253436 3.64793184 0 0 Z " fill="#258178" transform="translate(77,14)"/>
<path d="M0 0 C1.32 0 2.64 0 4 0 C4 0.66 4 1.32 4 2 C3.34 2 2.68 2 2 2 C1.67 3.32 1.34 4.64 1 6 C-0.32 5.67 -1.64 5.34 -3 5 C-2.34 5 -1.68 5 -1 5 C-0.67 3.35 -0.34 1.7 0 0 Z " fill="#328976" transform="translate(63,105)"/>
<path d="M0 0 C0.53625 0.474375 1.0725 0.94875 1.625 1.4375 C4.42842836 3.28186076 6.69620258 3.62456847 10 4 C10 4.66 10 5.32 10 6 C7.36 5.67 4.72 5.34 2 5 C1.34 3.35 0.68 1.7 0 0 Z " fill="#0A8474" transform="translate(39,88)"/>
<path d="M0 0 C0.99 0 1.98 0 3 0 C2.979375 0.94875 2.95875 1.8975 2.9375 2.875 C2.77448174 5.90666283 2.77448174 5.90666283 4 8 C3.01 8 2.02 8 1 8 C0.67 5.36 0.34 2.72 0 0 Z " fill="#2A7978" transform="translate(86,56)"/>
<path d="M0 0 C-0.33 0.66 -0.66 1.32 -1 2 C-3.64860427 2.59355614 -6.29197322 2.74209269 -9 3 C-9 2.34 -9 1.68 -9 1 C-5.64919071 -1.10976881 -3.77897651 -1.0497157 0 0 Z " fill="#3DA865" transform="translate(121,54)"/>
<path d="M0 0 C1 3 1 3 0.0625 5.1875 C-0.4634375 6.0846875 -0.4634375 6.0846875 -1 7 C-1.66 7 -2.32 7 -3 7 C-3.33 5.35 -3.66 3.7 -4 2 C-3.01 2 -2.02 2 -1 2 C-0.67 1.34 -0.34 0.68 0 0 Z " fill="#609876" transform="translate(51,121)"/>
<path d="M0 0 C1.98 0 3.96 0 6 0 C5.67 0.99 5.34 1.98 5 3 C2.69 3.33 0.38 3.66 -2 4 C-1.34 2.68 -0.68 1.36 0 0 Z " fill="#198584" transform="translate(39,71)"/>
<path d="M0 0 C1.32 0.66 2.64 1.32 4 2 C1.6875 3.5625 1.6875 3.5625 -1 5 C-1.99 4.67 -2.98 4.34 -4 4 C-2.68 2.68 -1.36 1.36 0 0 Z " fill="#88825E" transform="translate(105,66)"/>
<path d="M0 0 C0.33 0.66 0.66 1.32 1 2 C-0.32 3.32 -1.64 4.64 -3 6 C-3.99 5.67 -4.98 5.34 -6 5 C-4.06745228 2.9754262 -2.36841312 1.57894208 0 0 Z " fill="#469470" transform="translate(100,58)"/>
<path d="M0 0 C0.99 0.33 1.98 0.66 3 1 C2.01 2.485 2.01 2.485 1 4 C0.34 4 -0.32 4 -1 4 C-1 5.98 -1 7.96 -1 10 C-1.33 10 -1.66 10 -2 10 C-2.1953125 3.9453125 -2.1953125 3.9453125 -2 2 C-1.34 1.34 -0.68 0.68 0 0 Z " fill="#169986" transform="translate(83,38)"/>
<path d="M0 0 C0 3.41099168 -0.49145406 6.63088314 -1 10 C-1.33 9.34 -1.66 8.68 -2 8 C-2.66 8 -3.32 8 -4 8 C-3.40072174 4.64404172 -2.15377564 2.62198774 0 0 Z " fill="#0E8C7A" transform="translate(83,25)"/>
<path d="M0 0 C1.64826111 2.96687001 2.44271087 5.65626525 3 9 C0.9375 7.3125 0.9375 7.3125 -1 5 C-0.75 2.25 -0.75 2.25 0 0 Z " fill="#188780" transform="translate(76,23)"/>
<path d="M0 0 C0.66 0 1.32 0 2 0 C1.74438677 2.3431213 1.40729228 4.67843403 1 7 C0.01 7.495 0.01 7.495 -1 8 C-1.04241723 5.66705225 -1.04092937 3.33297433 -1 1 C-0.67 0.67 -0.34 0.34 0 0 Z " fill="#1B676E" transform="translate(398,251)"/>
<path d="M0 0 C2.475 0.99 2.475 0.99 5 2 C4.01 2.33 3.02 2.66 2 3 C1.26676204 5.01508358 1.26676204 5.01508358 1 7 C0 6 0 6 -0.0625 2.9375 C-0.041875 1.968125 -0.02125 0.99875 0 0 Z " fill="#19555A" transform="translate(362,239)"/>
<path d="M0 0 C1.74627478 2.61941217 2.38722388 4.03824877 3 7 C1.02 7.99 1.02 7.99 -1 9 C-0.67 6.03 -0.34 3.06 0 0 Z " fill="#6DC1AF" transform="translate(341,176)"/>
<path d="M0 0 C2.31 0 4.62 0 7 0 C5.02 0.99 5.02 0.99 3 2 C3 2.33 3 2.66 3 3 C2.67 3.99 2.34 4.98 2 6 C1.34 5.34 0.68 4.68 0 4 C0 2.68 0 1.36 0 0 Z " fill="#1B7771" transform="translate(56,58)"/>
<path d="M0 0 C1.65 0 3.3 0 5 0 C5.33 1.32 5.66 2.64 6 4 C5.01 4.33 4.02 4.66 3 5 C1.5 3.625 1.5 3.625 0 2 C0 1.34 0 0.68 0 0 Z " fill="#17A88B" transform="translate(60,54)"/>
<path d="M0 0 C0.33 0.66 0.66 1.32 1 2 C-0.75 4.0625 -0.75 4.0625 -3 6 C-5.25 5.75 -5.25 5.75 -7 5 C-6.401875 4.731875 -5.80375 4.46375 -5.1875 4.1875 C-3.02775192 3.01506533 -1.64209744 1.80630718 0 0 Z " fill="#119A80" transform="translate(86,20)"/>
<path d="M0 0 C0 3 0 3 -2 5.1875 C-2.66 5.785625 -3.32 6.38375 -4 7 C-2.92598892 4.08482708 -2.22189824 2.22189824 0 0 Z " fill="#4A6860" transform="translate(78,104)"/>
<path d="M0 0 C3.63 0 7.26 0 11 0 C11 0.33 11 0.66 11 1 C7.37 1 3.74 1 0 1 C0 0.67 0 0.34 0 0 Z " fill="#000000" transform="translate(109,77)"/>
<path d="M0 0 C3.3 0 6.6 0 10 0 C10 0.33 10 0.66 10 1 C6.7 1 3.4 1 0 1 C0 0.67 0 0.34 0 0 Z " fill="#112A11" transform="translate(290,77)"/>
<path d="M0 0 C0.33 0 0.66 0 1 0 C1 2.64 1 5.28 1 8 C0.67 8 0.34 8 0 8 C0 5.36 0 2.72 0 0 Z " fill="#002000" transform="translate(265,318)"/>
<path d="M0 0 C0.33 0 0.66 0 1 0 C1 2.64 1 5.28 1 8 C0.67 8 0.34 8 0 8 C0 5.36 0 2.72 0 0 Z " fill="#000000" transform="translate(265,308)"/>
<path d="M0 0 C0.33 0 0.66 0 1 0 C1 1.98 1 3.96 1 6 C0.67 6 0.34 6 0 6 C0 4.02 0 2.04 0 0 Z " fill="#000000" transform="translate(122,174)"/>
<path d="M0 0 C0.33 0 0.66 0 1 0 C1 1.98 1 3.96 1 6 C0.67 6 0.34 6 0 6 C0 4.02 0 2.04 0 0 Z " fill="#000000" transform="translate(83,135)"/>
<path d="M0 0 C0 0.99 0 1.98 0 3 C-0.99 3.495 -0.99 3.495 -2 4 C-1.34 2.68 -0.68 1.36 0 0 Z " fill="#4E7267" transform="translate(81,100)"/>
<path d="M0 0 C0.33 0 0.66 0 1 0 C1 1.65 1 3.3 1 5 C0.67 5 0.34 5 0 5 C0 3.35 0 1.7 0 0 Z " fill="#000000" transform="translate(83,175)"/>
<path d="M0 0 C0.66 0.66 1.32 1.32 2 2 C1.34 2.66 0.68 3.32 0 4 C0 2.68 0 1.36 0 0 Z " fill="#49AF94" transform="translate(83,65)"/>
<path d="M0 0 C1 4 1 4 1 4 Z " fill="#404040" transform="translate(409,217)"/>
<path d="M0 0 C1 4 1 4 1 4 Z " fill="#000000" transform="translate(78,64)"/>
<path d="" fill="#000000" transform="translate(0,0)"/>
<path d="" fill="#386338" transform="translate(0,0)"/>
<path d="M0 0 C0.66 0 1.32 0 2 0 C1.67 0.66 1.34 1.32 1 2 C0.67 1.34 0.34 0.68 0 0 Z " fill="#38AA9C" transform="translate(82,80)"/>
<path d="M0 0 C3 1 3 1 3 1 Z " fill="#344C3B" transform="translate(104,77)"/>
<path d="M0 0 C2 1 2 1 2 1 Z " fill="#191919" transform="translate(194,182)"/>
<path d="" fill="#000000" transform="translate(0,0)"/>
<path d="" fill="#BFBF40" transform="translate(0,0)"/>
<path d="" fill="#40BF40" transform="translate(0,0)"/>
<path d="" fill="#40BF40" transform="translate(0,0)"/>
<path d="M0 0 C2 1 2 1 2 1 Z " fill="#404040" transform="translate(86,77)"/>
<path d="" fill="#204040" transform="translate(0,0)"/>
<path d="" fill="#00FF7F" transform="translate(0,0)"/>
<path d="" fill="#40BFBF" transform="translate(0,0)"/>
<path d="" fill="#000000" transform="translate(0,0)"/>
<path d="" fill="#000000" transform="translate(0,0)"/>
<path d="" fill="#000000" transform="translate(0,0)"/>
<path d="" fill="#00FFFF" transform="translate(0,0)"/>
<path d="" fill="#808080" transform="translate(0,0)"/>
<path d="" fill="#00FF00" transform="translate(0,0)"/>
<path d="" fill="#00FF00" transform="translate(0,0)"/>
<path d="" fill="#808080" transform="translate(0,0)"/>
<path d="" fill="#808080" transform="translate(0,0)"/>
<path d="" fill="#808080" transform="translate(0,0)"/>
<path d="" fill="#808080" transform="translate(0,0)"/>
<path d="" fill="#808080" transform="translate(0,0)"/>
<path d="" fill="#808080" transform="translate(0,0)"/>
<path d="" fill="#FFFF00" transform="translate(0,0)"/>
<path d="" fill="#00FF00" transform="translate(0,0)"/>
<path d="" fill="#808080" transform="translate(0,0)"/>
<path d="" fill="#00FFFF" transform="translate(0,0)"/>
<path d="" fill="#00FFFF" transform="translate(0,0)"/>
<path d="" fill="#000000" transform="translate(0,0)"/>
<path d="" fill="#00FFFF" transform="translate(0,0)"/>
</svg>
